<svg width="19" height="20" viewBox="0 0 19 20" fill="none" xmlns="http://www.w3.org/2000/svg">
    <path d="M15.6009 0H3.39907C1.52482 0 0 1.60508 0 3.57797V16.4221C0 18.3949 1.52482 20 3.39907 20H15.601C17.4752 20 19 18.3949 19 16.422V3.57797C19 1.60508 17.4752 0 15.6009 0ZM17.8867 16.422C17.8867 17.7487 16.8613 18.8281 15.6009 18.8281H3.39907C2.13869 18.8281 1.11328 17.7487 1.11328 16.422V3.57797C1.11328 2.25125 2.13869 1.17188 3.39907 1.17188H15.601C16.8613 1.17188 17.8867 2.25125 17.8867 3.57797V16.422Z"
          fill="#21283B"/>
    <path d="M16.0583 4.39338H7.58026C7.34718 3.66467 6.69239 3.13818 5.92251 3.13818C5.15264 3.13818 4.49785 3.66467 4.26476 4.39338H2.94141C2.63399 4.39338 2.38477 4.65572 2.38477 4.97932C2.38477 5.30291 2.63399 5.56525 2.94141 5.56525H4.2648C4.49788 6.29397 5.15268 6.82045 5.92255 6.82045C6.69242 6.82045 7.34722 6.29397 7.5803 5.56525H16.0583C16.3658 5.56525 16.615 5.30291 16.615 4.97932C16.615 4.65572 16.3658 4.39338 16.0583 4.39338ZM5.92251 5.64858C5.57194 5.64858 5.28672 5.34834 5.28672 4.97932C5.28672 4.61029 5.57194 4.31006 5.92251 4.31006C6.27309 4.31006 6.55831 4.61029 6.55831 4.97932C6.55831 5.34834 6.27309 5.64858 5.92251 5.64858Z"
          fill="#21283B"/>
    <path d="M16.0583 9.41389H14.7349C14.5018 8.68518 13.847 8.15869 13.0772 8.15869C12.3073 8.15869 11.6525 8.68518 11.4195 9.41389H2.94141C2.63399 9.41389 2.38477 9.67623 2.38477 9.99983C2.38477 10.3234 2.63399 10.5858 2.94141 10.5858H11.4195C11.6525 11.3145 12.3074 11.841 13.0772 11.841C13.847 11.841 14.5019 11.3145 14.735 10.5858H16.0583C16.3658 10.5858 16.615 10.3234 16.615 9.99983C16.615 9.67623 16.3658 9.41389 16.0583 9.41389ZM13.0772 10.6691C12.7266 10.6691 12.4414 10.3688 12.4414 9.99983C12.4414 9.6308 12.7266 9.33057 13.0772 9.33057C13.4278 9.33057 13.713 9.6308 13.713 9.99983C13.713 10.3688 13.4278 10.6691 13.0772 10.6691Z"
          fill="#21283B"/>
    <path d="M16.0583 14.4349H9.96517C9.73209 13.7062 9.07729 13.1797 8.30742 13.1797C7.53755 13.1797 6.88276 13.7062 6.64967 14.4349H2.94141C2.63399 14.4349 2.38477 14.6972 2.38477 15.0208C2.38477 15.3444 2.63399 15.6068 2.94141 15.6068H6.64967C6.88276 16.3355 7.53755 16.862 8.30742 16.862C9.07729 16.862 9.73209 16.3355 9.96517 15.6068H16.0583C16.3658 15.6068 16.615 15.3444 16.615 15.0208C16.615 14.6972 16.3658 14.4349 16.0583 14.4349ZM8.30742 15.6901C7.95685 15.6901 7.67163 15.3899 7.67163 15.0209C7.67163 14.6518 7.95685 14.3516 8.30742 14.3516C8.65799 14.3516 8.94322 14.6518 8.94322 15.0208C8.94322 15.3898 8.65799 15.6901 8.30742 15.6901Z"
          fill="#21283B"/>
</svg>