<svg width="20" height="20" viewBox="0 0 20 20" fill="none" xmlns="http://www.w3.org/2000/svg">
    <path d="M0.244373 18.5783L5.93182 12.8908C4.83015 11.53 4.16683 9.80086 4.16683 7.91756C4.16683 3.5526 7.71848 0.000961304 12.0834 0.000961304C16.4484 0.000961304 20 3.55257 20 7.91752C20 12.2825 16.4484 15.8341 12.0834 15.8341C10.2001 15.8341 8.47093 15.1708 7.11013 14.0691L1.42268 19.7566C1.26018 19.9191 1.04687 20.0008 0.833509 20.0008C0.620152 20.0008 0.406834 19.9191 0.244335 19.7566C-0.0814819 19.4308 -0.0814819 18.9041 0.244373 18.5783ZM12.0834 14.1675C15.53 14.1675 18.3333 11.3642 18.3333 7.91752C18.3333 4.47088 15.53 1.66759 12.0834 1.66759C8.63675 1.66759 5.83346 4.47088 5.83346 7.91752C5.83346 11.3642 8.63679 14.1675 12.0834 14.1675Z"
          fill="#21283B"/>
</svg>