<svg width="20" height="20" viewBox="0 0 20 20" fill="none" xmlns="http://www.w3.org/2000/svg">
    <path d="M18.5715 2.85715H13.5715V2.14286C13.5715 0.959388 12.6121 0 11.4287 0H8.57152C7.38805 0 6.42867 0.959388 6.42867 2.14286V2.85715H1.42865C1.03415 2.85715 0.714355 3.17695 0.714355 3.57145C0.714355 3.96596 1.03419 4.28571 1.42865 4.28571H2.20506L3.57151 19.3507C3.6052 19.7196 3.91537 20.0015 4.28581 20H15.7144C16.0848 20.0015 16.395 19.7196 16.4287 19.3507L17.7951 4.28571H18.5715C18.966 4.28571 19.2858 3.96591 19.2858 3.57141C19.2858 3.17691 18.966 2.85715 18.5715 2.85715ZM7.85722 2.14286C7.85722 1.74835 8.17702 1.42856 8.57152 1.42856H11.4287C11.8232 1.42856 12.143 1.74835 12.143 2.14286V2.85715H7.85726V2.14286H7.85722ZM7.19725 17.1426C7.19603 17.1427 7.19486 17.1428 7.19365 17.1428H7.14292C6.76742 17.1438 6.45528 16.8538 6.42862 16.4793L5.71432 6.47929C5.68632 6.08479 5.98339 5.74231 6.3779 5.71431C6.7724 5.68631 7.11488 5.98338 7.14288 6.37788L7.85718 16.3779C7.88618 16.7713 7.5907 17.1137 7.19725 17.1426ZM10.7144 16.4285C10.7144 16.823 10.3946 17.1428 10.0001 17.1428C9.60557 17.1428 9.28578 16.823 9.28578 16.4285V6.42857C9.28578 6.03406 9.60557 5.71427 10.0001 5.71427C10.3946 5.71427 10.7144 6.03406 10.7144 6.42857V16.4285ZM14.2858 6.47929L13.5715 16.4793C13.5448 16.8538 13.2327 17.1438 12.8572 17.1428H12.8058C12.4122 17.1155 12.1154 16.7743 12.1427 16.3808C12.1428 16.3798 12.1428 16.3788 12.1429 16.3779L12.8572 6.37784C12.8852 5.98334 13.2278 5.68627 13.6222 5.71427C14.0167 5.74231 14.3138 6.08479 14.2858 6.47929Z"
          fill="#EBF1FF"/>
</svg>