<svg width="13" height="14" viewBox="0 0 13 14" fill="none" xmlns="http://www.w3.org/2000/svg">
    <path d="M1.52455 12.3643H9.95032L9.54791 11.0781L10.5105 11.8936L11.3927 12.6741L13 14V1.44375C12.9598 0.66325 12.2791 0 11.4353 0L1.5275 0.00175C0.684273 0.00175 0 0.666167 0 1.44667V10.92C0 11.7431 0.683091 12.3643 1.52455 12.3643ZM7.75745 3.31508L7.73795 3.32208L7.74505 3.31508H7.75745ZM3.24823 4.05533C4.33136 3.27717 5.33532 3.3145 5.33532 3.3145L5.41627 3.39325C4.09086 3.70533 3.48991 4.28983 3.48991 4.28983C3.48991 4.28983 3.65064 4.21225 3.93132 4.09383C5.71645 3.40083 7.66586 3.451 9.4705 4.32833C9.4705 4.32833 8.86836 3.78175 7.6245 3.43175L7.73441 3.325C7.90636 3.32558 8.81636 3.35708 9.79018 4.06C9.79018 4.06 10.8798 5.8975 10.8798 8.155C10.8438 8.11183 10.2038 9.12683 8.55695 9.16183C8.55695 9.16183 8.27805 8.85033 8.0795 8.5785C9.04268 8.3055 9.40314 7.7595 9.40314 7.7595C9.087 7.95608 8.79864 8.07275 8.56464 8.18942C8.20477 8.34575 7.84432 8.42275 7.48445 8.5015C5.78027 8.7745 4.82359 8.31775 3.9195 7.9555L3.61045 7.80033C3.61045 7.80033 3.97032 8.34633 4.89509 8.61933C4.65223 8.89292 4.41173 9.20383 4.41173 9.20383C2.76545 9.16533 2.16509 8.15033 2.16509 8.15033C2.16509 5.88933 3.24823 4.05533 3.24823 4.05533Z" fill="#EBF1FF"/>
    <path d="M7.86383 7.44983C8.28397 7.44983 8.62611 7.09983 8.62611 6.66816C8.62611 6.23941 8.28574 5.8894 7.86383 5.8894V5.89115C7.44547 5.89115 7.10274 6.23999 7.10156 6.67166C7.10156 7.09983 7.4437 7.44983 7.86383 7.44983Z" fill="#EBF1FF"/>
    <path d="M5.13495 7.44983C5.55509 7.44983 5.89723 7.09983 5.89723 6.66816C5.89723 6.23941 5.55745 5.8894 5.13732 5.8894L5.13495 5.89115C4.71482 5.89115 4.37268 6.23999 4.37268 6.67166C4.37268 7.09983 4.71482 7.44983 5.13495 7.44983Z" fill="#EBF1FF"/>
</svg>