<svg width="15" height="15" viewBox="0 0 15 15" fill="none" xmlns="http://www.w3.org/2000/svg">
    <g clip-path="url(#clip0)">
        <path d="M11.508 9.08834C11.1739 7.54192 9.96976 6.31562 8.43528 5.94952C9.14066 5.35457 9.58969 4.46462 9.58969 3.4718C9.58969 1.68469 8.13578 0.230774 6.34878 0.230774C4.56167 0.230774 3.10776 1.68469 3.10776 3.47168C3.10776 4.46462 3.55679 5.35446 4.26217 5.94941C2.44869 6.3821 1.09619 8.01597 1.09619 9.95993V13.1748H8.42593C8.87372 14.2457 9.93213 15 11.1635 15C12.7989 15 14.1294 13.6696 14.1294 12.0341C14.1294 10.5152 12.9817 9.25962 11.508 9.08834ZM3.98328 3.47168C3.98328 2.16741 5.04439 1.1063 6.34878 1.1063C7.65306 1.1063 8.71417 2.16741 8.71417 3.47168C8.71417 4.77596 7.65306 5.83718 6.34878 5.83718C5.04439 5.83718 3.98328 4.77596 3.98328 3.47168ZM8.19764 12.0341C8.19764 12.1235 8.20181 12.212 8.20958 12.2994H1.97172V9.95993C1.97172 8.16932 3.42845 6.71259 5.21905 6.71259H7.4784C8.9784 6.71259 10.2438 7.73483 10.6152 9.11922C9.24083 9.37726 8.19764 10.586 8.19764 12.0341ZM11.1635 14.1245C10.0109 14.1245 9.07316 13.1868 9.07316 12.0341C9.07316 10.8815 10.0109 9.94381 11.1635 9.94381C12.3161 9.94381 13.2538 10.8815 13.2538 12.0341C13.2538 13.1868 12.3161 14.1245 11.1635 14.1245Z" fill="#21283B"/>
        <path d="M11.6012 10.8078H10.7257V11.5964H9.93713V12.4719H10.7257V13.2604H11.6012V12.4719H12.3897V11.5964H11.6012V10.8078Z" fill="#21283B"/>
    </g>
    <defs>
        <clipPath id="clip0">
            <rect width="14.7692" height="14.7692" fill="white" transform="translate(0.230774 0.230774)"/>
        </clipPath>
    </defs>
</svg>