<svg width="14" height="13" viewBox="0 0 14 13" fill="none" xmlns="http://www.w3.org/2000/svg">
    <path d="M13.158 3.60924L11.7864 2.28551L12.3579 1.69326C12.5796 1.4709 12.6103 1.12168 12.4307 0.864108C12.3209 0.714487 12.1507 0.620949 11.9656 0.608529C11.7805 0.596109 11.5993 0.666074 11.4706 0.799672L6.18604 6.27125L6.48321 6.5601L6.79285 6.85934L7.09209 7.14819L9.44447 4.71267L10.8139 6.03433C10.8935 6.11209 11.001 6.15475 11.1122 6.1528C11.2235 6.15086 11.3293 6.10444 11.4062 6.02396L11.6992 5.72055C11.7766 5.64077 11.8191 5.53342 11.8171 5.42225C11.8152 5.31109 11.769 5.2053 11.6888 5.1283L11.535 4.97867L12.1273 4.36565L12.281 4.51527C12.3613 4.59242 12.469 4.63431 12.5803 4.63165C12.6913 4.6318 12.7974 4.58589 12.8733 4.5049L13.1684 4.20149C13.3286 4.03492 13.324 3.77009 13.158 3.60924ZM11.6638 3.63001L10.7827 4.54228C10.7449 4.58224 10.6923 4.60479 10.6373 4.60462H10.6331C10.5795 4.60494 10.528 4.58402 10.4897 4.54644L9.88084 3.96043C9.79865 3.87989 9.7968 3.74815 9.87668 3.66535L10.7578 2.75308C10.7956 2.71312 10.8482 2.69057 10.9032 2.69074C10.9582 2.68942 11.0115 2.71039 11.0508 2.74892L11.6576 3.33493C11.7404 3.41488 11.7431 3.54663 11.6638 3.63001Z" fill="#21283B"/>
    <path d="M6.21525 8.0542L5.91601 7.76536L5.60846 7.46818L5.30922 7.17934L4.9601 7.54092C3.72898 6.80962 2.14245 7.14892 1.31812 8.31979C0.49381 9.49065 0.709426 11.0987 1.81306 12.0111C2.91668 12.9235 4.53658 12.8328 5.53155 11.8031C6.41932 10.8901 6.55813 9.48476 5.86613 8.41579L6.21525 8.0542ZM4.92476 11.217C4.57577 11.5799 4.0961 11.7879 3.59271 11.7947H3.55737C2.65721 11.7922 1.88317 11.1564 1.70571 10.2739C1.52825 9.39142 1.99638 8.50591 2.82558 8.15558C3.65478 7.80524 4.61602 8.08686 5.12506 8.82927C5.63415 9.5717 5.5504 10.5698 4.92476 11.217ZM5.13673 7.95445C5.13673 7.95501 5.13653 7.95555 5.13614 7.95594C5.13653 7.95555 5.13675 7.95501 5.13673 7.95445ZM5.11802 7.97109C5.12448 7.96738 5.13013 7.96244 5.13466 7.95655C5.135 7.95655 5.13527 7.95633 5.13556 7.95618C5.13527 7.95633 5.135 7.95655 5.13466 7.95655C5.13015 7.96244 5.1245 7.96738 5.11802 7.97109L5.11595 7.97315C5.10633 7.98058 5.09586 7.98687 5.08478 7.99186C5.05424 8.00817 5.0201 8.01599 4.98589 8.01477C5.0201 8.01597 5.05422 8.00817 5.08478 7.99186C5.09586 7.98687 5.10633 7.98058 5.11595 7.97315L5.11802 7.97109ZM1.7616 8.4331C2.52315 7.49626 3.87544 7.29906 4.87282 7.97939C4.88546 7.98828 4.89936 7.99522 4.91405 8.00004C4.91412 8.00006 4.91419 8.00011 4.91429 8.00014C4.89951 7.99532 4.88553 7.98835 4.87284 7.97939C3.87544 7.29906 2.52315 7.49626 1.7616 8.4331C1.40462 8.87225 1.23327 9.40527 1.2415 9.93392C1.23325 9.40527 1.40462 8.87225 1.7616 8.4331ZM5.88642 9.93509C5.89448 9.44139 5.74578 8.94238 5.43183 8.51763C5.43188 8.5177 5.43193 8.51775 5.43195 8.5178C5.74583 8.94253 5.89445 9.44146 5.88642 9.93509Z" fill="#21283B"/>
    <path d="M6.65376 7.30194L6.05734 6.72632L6.03657 6.70555L5.73732 6.4167C5.69824 6.37786 5.64486 6.35682 5.58977 6.35853C5.5342 6.36047 5.48143 6.38349 5.44222 6.42294C5.39868 6.46378 5.37452 6.52118 5.37571 6.58086C5.37635 6.6357 5.39878 6.68804 5.43806 6.72632L5.73937 7.01726L5.75391 7.02973L6.35446 7.61158L6.66411 7.90875C6.70348 7.94713 6.7565 7.96825 6.81146 7.96747C6.86643 7.96669 6.91883 7.94407 6.95711 7.90459C7.00117 7.86392 7.02606 7.8066 7.02569 7.74666C7.02586 7.69165 7.00331 7.639 6.96335 7.60121L6.65376 7.30194Z" fill="#21283B"/>
</svg>