<svg width="20" height="16" viewBox="0 0 20 16" fill="none" xmlns="http://www.w3.org/2000/svg">
    <path d="M18.596 4.29053H18.0483V10.3112C18.0483 11.2486 17.5025 12.0963 16.4082 12.0963H5.68774V12.3825C5.68774 13.2113 6.6304 14.0479 7.59842 14.0479H15.7948L18.9304 15.8915L18.4757 14.0479H18.596C19.5634 14.0479 19.9999 13.2132 19.9999 12.3825V5.71975C19.9999 4.89097 19.5634 4.29053 18.596 4.29053Z"
          fill="#EBF1FF"/>
    <path d="M14.8079 0.107666H2.35631C1.26077 0.107666 0 1.08086 0 2.01893V9.56512C0 10.429 1.06821 11.0529 2.09283 11.1492L1.42602 13.6804L5.69886 11.1667H14.8079C15.9035 11.1667 16.9144 10.5025 16.9144 9.56512V3.45986V2.01893C16.9144 1.08086 15.9028 0.107666 14.8079 0.107666ZM4.25593 6.47769C3.63465 6.47769 3.13112 5.97418 3.13112 5.35292C3.13112 4.73166 3.63465 4.22815 4.25593 4.22815C4.87656 4.22815 5.38074 4.73166 5.38074 5.35292C5.38074 5.97418 4.87656 6.47769 4.25593 6.47769ZM8.45721 6.47769C7.83593 6.47769 7.3324 5.97418 7.3324 5.35292C7.3324 4.73166 7.83593 4.22815 8.45721 4.22815C9.07849 4.22815 9.58202 4.73166 9.58202 5.35292C9.58202 5.97418 9.07849 6.47769 8.45721 6.47769ZM12.6591 6.47769C12.0379 6.47769 11.5337 5.97418 11.5337 5.35292C11.5337 4.73166 12.0379 4.22815 12.6591 4.22815C13.2791 4.22815 13.784 4.73166 13.784 5.35292C13.784 5.97418 13.2791 6.47769 12.6591 6.47769Z"
          fill="#EBF1FF"/>
</svg>
