<svg width="30" height="30" viewBox="0 0 30 30" fill="none" xmlns="http://www.w3.org/2000/svg">
    <path d="M4.58916 3.54102C4.58836 3.54102 4.58745 3.54102 4.58664 3.54102C4.3029 3.54102 4.03603 3.65162 3.83452 3.85263C3.63078 4.05587 3.51855 4.32647 3.51855 4.61455V20.7121C3.51855 21.3024 4.00068 21.7838 4.59341 21.7853C7.0922 21.7913 11.2787 22.3121 14.1668 25.3344V8.4879C14.1668 8.2878 14.1157 8.09982 14.0192 7.94426C11.6488 4.12688 7.09362 3.54687 4.58916 3.54102Z" fill="#EBF1FF"/>
    <path d="M26.4816 20.7115V4.61382C26.4816 4.32574 26.3694 4.05513 26.1657 3.8519C25.9641 3.65089 25.6971 3.54028 25.4136 3.54028C25.4127 3.54028 25.4118 3.54028 25.411 3.54028C22.9066 3.54624 18.3515 4.12624 15.981 7.94363C15.8845 8.09919 15.8335 8.28717 15.8335 8.48727V25.3337C18.7216 22.3114 22.9081 21.7905 25.4069 21.7846C25.9995 21.7831 26.4816 21.3017 26.4816 20.7115Z" fill="#EBF1FF"/>
    <path d="M28.9267 7.25269H28.1483V20.7114C28.1483 22.2186 26.9204 23.4476 25.4109 23.4513C23.2914 23.4564 19.7966 23.8708 17.3215 26.2134C21.6022 25.1653 26.1147 25.8466 28.6864 26.4327C29.0075 26.5058 29.3394 26.4302 29.5966 26.2252C29.853 26.0206 30.0001 25.7149 30.0001 25.3867V8.32602C30.0002 7.7342 29.5185 7.25269 28.9267 7.25269Z" fill="#EBF1FF"/>
    <path d="M1.85172 20.7114V7.25269H1.07334C0.481618 7.25269 0 7.7342 0 8.32602V25.3864C0 25.7147 0.147071 26.0203 0.403436 26.2249C0.660507 26.4298 0.992023 26.5057 1.31364 26.4323C3.88537 25.8462 8.39801 25.165 12.6784 26.2131C10.2035 23.8706 6.70871 23.4563 4.58921 23.4512C3.07981 23.4476 1.85172 22.2186 1.85172 20.7114Z" fill="#EBF1FF"/>
</svg>