<svg width="220" height="41" viewBox="0 0 220 41" fill="none" xmlns="http://www.w3.org/2000/svg">
    <rect width="220" height="41" fill="#5B87EF"/>
    <path d="M26.998 19.0705C29.516 19.0705 31.5402 17.0362 31.5402 14.536C31.5431 12.0285 29.516 10 26.998 10C24.4974 10 22.4675 12.0285 22.4675 14.536C22.4675 17.0391 24.4975 19.0705 26.998 19.0705Z" fill="#EBF1FF"/>
    <path d="M30.6412 19.8093H23.3661C22.0654 19.8093 21 21.001 21 22.4629V29.7648C21 29.8451 21.0409 29.9167 21.0453 30H32.9576C32.9663 29.9168 33 29.8452 33 29.7648V22.4629C33.0043 21.001 31.9389 19.8093 30.6412 19.8093Z" fill="#EBF1FF"/>
    <path d="M46.516 26.168C48.168 26.168 49.288 25.384 50.072 24.32L49.078 23.774C48.546 24.572 47.58 25.132 46.516 25.132C44.472 25.132 42.918 23.55 42.918 21.338C42.918 19.112 44.472 17.544 46.516 17.544C47.58 17.544 48.546 18.118 49.078 18.902L50.058 18.356C49.316 17.306 48.168 16.508 46.516 16.508C43.828 16.508 41.714 18.468 41.714 21.338C41.714 24.208 43.828 26.168 46.516 26.168ZM56.0889 26.168C58.8469 26.168 60.7229 24.096 60.7229 21.338C60.7229 18.58 58.8469 16.508 56.0889 16.508C53.3169 16.508 51.4549 18.58 51.4549 21.338C51.4549 24.096 53.3169 26.168 56.0889 26.168ZM56.0889 25.132C53.9889 25.132 52.6589 23.508 52.6589 21.338C52.6589 19.154 53.9889 17.544 56.0889 17.544C58.1749 17.544 59.5189 19.154 59.5189 21.338C59.5189 23.508 58.1749 25.132 56.0889 25.132ZM65.646 26.168C67.746 26.168 69.146 25.034 69.146 23.48C69.146 21.982 67.844 21.254 66.99 21.184C67.858 21.03 69.006 20.358 69.006 19.014C69.006 17.432 67.494 16.522 65.66 16.522C64.176 16.522 62.986 17.152 62.286 17.964L62.93 18.692C63.63 17.95 64.512 17.558 65.576 17.558C66.808 17.558 67.816 18.118 67.816 19.154C67.816 20.232 66.794 20.694 65.548 20.694H63.644V21.73H65.548C66.976 21.73 67.97 22.22 67.97 23.382C67.97 24.46 67.088 25.132 65.618 25.132C64.47 25.132 63.378 24.614 62.818 23.886L62.132 24.628C62.72 25.468 64.008 26.168 65.646 26.168ZM70.6298 27.722H71.7918V26H78.7498V27.722H79.9118V24.964H79.0578V16.662H73.3458L72.7718 21.352C72.3798 24.516 71.7498 24.992 70.6298 25.062V27.722ZM73.9198 21.436L74.3818 17.698H77.8958V24.964H72.4918C73.1778 24.446 73.6818 23.41 73.9198 21.436ZM89.665 26L85.899 16.662H84.457L80.705 26H82.035L82.861 23.928H87.509L88.335 26H89.665ZM87.159 22.892H83.197L85.185 17.866L87.159 22.892ZM93.6945 26V17.698H96.6625V16.662H89.5785V17.698H92.5325V26H93.6945ZM98.4868 16.662V26H102.239C104.115 26 105.165 24.712 105.165 23.186C105.165 21.66 104.087 20.372 102.239 20.372H99.6488V16.662H98.4868ZM102.099 21.408C103.205 21.408 103.961 22.136 103.961 23.186C103.961 24.236 103.205 24.964 102.099 24.964H99.6488V21.408H102.099ZM118.657 26V16.662H110.873V26H112.035V17.698H117.495V26H118.657ZM127.238 26V24.964H122.282V21.744H127.14V20.708H122.282V17.698H127.238V16.662H121.12V26H127.238ZM130.533 26V22.29H133.123C134.971 22.29 136.049 21.002 136.049 19.476C136.049 17.95 134.999 16.662 133.123 16.662H129.371V26H130.533ZM132.983 21.254H130.533V17.698H132.983C134.089 17.698 134.845 18.426 134.845 19.476C134.845 20.526 134.089 21.254 132.983 21.254ZM142.291 26.168C143.943 26.168 145.063 25.384 145.847 24.32L144.853 23.774C144.321 24.572 143.355 25.132 142.291 25.132C140.247 25.132 138.693 23.55 138.693 21.338C138.693 19.112 140.247 17.544 142.291 17.544C143.355 17.544 144.321 18.118 144.853 18.902L145.833 18.356C145.091 17.306 143.943 16.508 142.291 16.508C139.603 16.508 137.489 18.468 137.489 21.338C137.489 24.208 139.603 26.168 142.291 26.168ZM151.864 26.168C154.622 26.168 156.498 24.096 156.498 21.338C156.498 18.58 154.622 16.508 151.864 16.508C149.092 16.508 147.23 18.58 147.23 21.338C147.23 24.096 149.092 26.168 151.864 26.168ZM151.864 25.132C149.764 25.132 148.434 23.508 148.434 21.338C148.434 19.154 149.764 17.544 151.864 17.544C153.95 17.544 155.294 19.154 155.294 21.338C155.294 23.508 153.95 25.132 151.864 25.132ZM166.377 26V16.662H165.215V20.68H159.755V16.662H158.593V26H159.755V21.716H165.215V26H166.377ZM176.834 26L173.068 16.662H171.626L167.874 26H169.204L170.03 23.928H174.678L175.504 26H176.834ZM174.328 22.892H170.366L172.354 17.866L174.328 22.892ZM178.923 26L182.465 21.8L183.025 22.444V26H184.187V22.444L184.747 21.8L188.289 26H189.745L185.503 21.1L189.409 16.662H187.953L184.187 21.058V16.662H183.025V21.058L179.273 16.662H177.817L181.709 21.1L177.481 26H178.923ZM199.337 26L195.571 16.662H194.129L190.377 26H191.707L192.533 23.928H197.181L198.007 26H199.337ZM196.831 22.892H192.869L194.857 17.866L196.831 22.892Z" fill="#EBF1FF"/>
</svg>