<svg width="30" height="30" viewBox="0 0 30 30" fill="none" xmlns="http://www.w3.org/2000/svg">
    <g clip-path="url(#clip0)">
        <path fill-rule="evenodd" clip-rule="evenodd"
              d="M29.9003 19.3085L27.8893 10.7629C27.3478 8.46085 25.2258 6.09375 21.9945 6.09375H8.00591C5.64087 6.09375 2.8508 7.61742 2.11083 10.7629L0.0998722 19.3085C-0.446011 21.6282 1.31478 23.8536 3.70087 23.8536C4.71482 23.8536 5.66857 23.3134 6.18973 22.4444L7.7388 19.8631C8.00362 19.4213 8.48793 19.1471 9.00292 19.1471H20.997C21.512 19.1471 21.9965 19.4215 22.2614 19.8633L23.8102 22.4442C24.3316 23.3134 25.2853 23.8536 26.3004 23.8536C28.6829 23.8536 30.4466 21.6305 29.9003 19.3085ZM11.235 13.4992H10.2311V14.5031C10.2311 14.9883 9.83765 15.3818 9.35219 15.3818C8.86696 15.3818 8.47351 14.9883 8.47351 14.5031V13.4992H7.46964C6.98441 13.4992 6.59096 13.1058 6.59096 12.6205C6.59096 12.1351 6.98441 11.7416 7.46964 11.7416H8.47351V10.7378C8.47351 10.2525 8.86696 9.85909 9.35219 9.85909C9.83765 9.85909 10.2311 10.2525 10.2311 10.7378V11.7416H11.235C11.7202 11.7416 12.1137 12.1351 12.1137 12.6205C12.1137 13.1058 11.7202 13.4992 11.235 13.4992ZM18.7652 13.4992C18.2802 13.4992 17.8865 13.1055 17.8865 12.6205C17.8865 12.1353 18.2804 11.7416 18.7652 11.7416C19.2504 11.7416 19.6441 12.1353 19.6441 12.6205C19.6441 13.1055 19.2504 13.4992 18.7652 13.4992ZM20.648 15.3818C20.163 15.3818 19.7691 14.9881 19.7691 14.5031C19.7691 14.0181 20.163 13.6242 20.648 13.6242C21.133 13.6242 21.5266 14.0181 21.5266 14.5031C21.5266 14.9881 21.133 15.3818 20.648 15.3818ZM20.648 11.6167C20.163 11.6167 19.7691 11.223 19.7691 10.7378C19.7691 10.2528 20.163 9.85909 20.648 9.85909C21.133 9.85909 21.5266 10.2528 21.5266 10.7378C21.5266 11.223 21.133 11.6167 20.648 11.6167ZM22.5305 13.4992C22.0455 13.4992 21.6516 13.1055 21.6516 12.6205C21.6516 12.1353 22.0455 11.7416 22.5305 11.7416C23.0155 11.7416 23.4092 12.1353 23.4092 12.6205C23.4092 13.1055 23.0155 13.4992 22.5305 13.4992Z"
              fill="#EBF1FF"/>
    </g>
    <defs>
        <clipPath id="clip0">
            <rect width="30" height="30" fill="white"/>
        </clipPath>
    </defs>
</svg>