<svg width="30" height="30" viewBox="0 0 30 30" fill="none" xmlns="http://www.w3.org/2000/svg">
    <path d="M15 7.14258L10.2358 10.5459V19.4543L15 22.8577L19.7641 19.4543V10.5459L15 7.14258Z" fill="#EBF1FF"/>
    <path d="M3.76733 8.20532V21.7954L8.47939 19.3707V10.63L3.76733 8.20532Z" fill="#EBF1FF"/>
    <path d="M4.71729 6.71836L9.28314 9.06779L14.1219 5.61117V0L4.71729 6.71836Z" fill="#EBF1FF"/>
    <path d="M9.28314 20.9319L4.71729 23.2814L14.1219 29.9997V24.3886L9.28314 20.9319Z" fill="#EBF1FF"/>
    <path d="M21.5208 10.63V19.3707L26.2327 21.7954V8.20532L21.5208 10.63Z" fill="#EBF1FF"/>
    <path d="M15.8782 0V5.61117L20.7168 9.06779L25.2827 6.71836L15.8782 0Z" fill="#EBF1FF"/>
    <path d="M20.7168 20.9319L15.8782 24.3886V29.9997L25.2827 23.2814L20.7168 20.9319Z" fill="#EBF1FF"/>
</svg>