<svg width="30" height="30" viewBox="0 0 30 30" fill="none" xmlns="http://www.w3.org/2000/svg">
    <path d="M3.34893 27.591C2.99971 27.7003 2.6188 27.621 2.34212 27.3815C2.06545 27.1421 1.93242 26.7765 1.99051 26.4152L3.64156 16.4894H3.23367C2.98187 16.4895 2.76545 16.668 2.71735 16.9152L0.495247 28.322C0.465783 28.4752 0.506323 28.6335 0.605773 28.7536C0.706528 28.8763 0.856994 28.9474 1.01577 28.9473H11.8852L12.0431 27.0394C9.14462 26.4921 6.15505 26.6818 3.34893 27.591Z" fill="#EBF1FF"/>
    <path d="M8.69695 9.31167C8.49066 9.0302 8.16223 8.86432 7.81326 8.86536C7.3151 8.86815 6.87957 9.2019 6.74731 9.68219C6.61505 10.1625 6.81833 10.6721 7.24484 10.9296C7.40842 11.0254 7.50783 11.2018 7.50507 11.3913C7.50232 11.5809 7.39784 11.7543 7.23155 11.8454C7.06525 11.9364 6.86285 11.931 6.70168 11.8311C6.55929 11.7429 6.42785 11.6382 6.3101 11.519C5.83138 12.6249 6.01301 13.9058 6.78031 14.835C7.5476 15.7641 8.77103 16.1847 9.94747 15.9238C9.91748 15.7499 9.90146 15.5739 9.89958 15.3975C8.97143 15.296 8.26813 14.5127 8.26695 13.579C8.26635 13.2871 8.50133 13.0493 8.79326 13.0464C8.93213 13.0449 9.06586 13.0989 9.1647 13.1964C9.26355 13.294 9.31931 13.427 9.31958 13.5659V13.579C9.32627 13.9948 9.65429 14.3341 10.0696 14.3548C10.1441 14.1184 10.2451 13.8912 10.3706 13.6775C10.4651 13.5116 10.6419 13.4099 10.8327 13.4116C11.0235 13.4133 11.1985 13.5182 11.2899 13.6857C11.3814 13.8532 11.375 14.0571 11.2733 14.2185C10.6674 15.2208 10.9306 16.5202 11.8788 17.2076C12.827 17.8951 14.1438 17.7413 14.908 16.8538C15.0536 16.6847 15.2901 16.6259 15.498 16.7069C16.0517 16.9265 16.6483 17.0165 17.2422 16.9701C17.5505 16.9498 17.8553 16.8939 18.1506 16.8033C18.3304 16.748 18.526 16.7928 18.6637 16.9208C18.8015 17.0489 18.8605 17.2407 18.8185 17.424C18.7765 17.6073 18.6399 17.7543 18.4601 17.8096C18.1962 17.8876 17.9263 17.9439 17.6533 17.978C17.8396 18.3464 18.2785 18.689 19.4159 19.0701C20.0151 19.2605 20.5488 19.6151 20.9564 20.0938C21.1189 20.2962 21.3938 20.37 21.6359 20.2764C21.8452 20.1872 21.981 19.9818 21.9812 19.7543C21.9811 19.6965 21.9719 19.6392 21.9538 19.5843C21.8549 19.2702 21.7233 18.9673 21.5612 18.6806C21.2612 18.8063 20.948 18.8978 20.6275 18.9533C20.5998 18.9574 20.5718 18.9596 20.5438 18.9596C20.2699 18.9586 20.0426 18.7477 20.021 18.4747C19.9995 18.2017 20.1909 17.9578 20.4612 17.9138C21.33 17.7723 22.1084 17.295 22.6285 16.5848C21.8198 16.8295 20.9476 16.7489 20.1975 16.3601C19.9757 16.245 19.7686 16.1036 19.5806 15.939C19.3706 16.0234 19.1465 16.0675 18.9201 16.069C18.2247 16.0709 17.5888 15.6774 17.2801 15.0543C17.15 14.7943 17.2554 14.4781 17.5154 14.348C17.7754 14.2179 18.0916 14.3232 18.2217 14.5833C18.3263 14.7823 18.5105 14.9277 18.7284 14.9833C18.9463 15.0389 19.1776 14.9995 19.3648 14.8748C19.6836 14.6527 19.7916 14.2306 19.6185 13.8827C19.5339 13.7147 19.5454 13.5143 19.6485 13.357C19.7517 13.1998 19.931 13.1095 20.1188 13.1202C20.3066 13.1309 20.4744 13.241 20.5591 13.409C20.8623 14.0045 20.8091 14.7192 20.4212 15.2633C20.5023 15.3219 20.5877 15.3747 20.6764 15.4211C21.5812 15.872 22.675 15.6713 23.3606 14.9285L23.3733 14.9154C23.92 14.3043 24.0906 13.4441 23.8185 12.6706C23.6967 12.7664 23.5649 12.8488 23.4254 12.9164C23.3556 12.9494 23.2794 12.9665 23.2022 12.9664C22.9578 12.964 22.7473 12.7937 22.6938 12.5553C22.6403 12.3168 22.758 12.0729 22.978 11.9664C23.1877 11.8679 23.3618 11.7068 23.4764 11.5054C23.7442 11.0491 23.651 10.467 23.2542 10.1171C22.8574 9.76711 22.2683 9.74742 21.8491 10.0701C21.6165 10.2445 21.2866 10.1974 21.1122 9.96483C20.9378 9.73229 20.9849 9.40239 21.2175 9.22799C21.4223 9.07497 21.653 8.95999 21.8985 8.88851C21.556 7.418 20.2887 6.34676 18.7817 6.25378C18.7817 6.2943 18.7938 6.33273 18.7938 6.37325C18.7938 6.66393 18.5581 6.89957 18.2675 6.89957C17.9768 6.89957 17.7412 6.66393 17.7412 6.37325C17.7412 5.97772 17.5301 5.61224 17.1876 5.41447C16.8451 5.21671 16.423 5.21671 16.0805 5.41447C15.738 5.61224 15.5269 5.97772 15.5269 6.37325C15.5269 6.66393 15.2913 6.89957 15.0006 6.89957C14.71 6.89957 14.4743 6.66393 14.4743 6.37325C14.4772 6.13749 14.5189 5.90381 14.598 5.68167C14.1839 5.4091 13.6995 5.26281 13.2038 5.26062C12.2937 5.26391 11.4516 5.74306 10.9838 6.52378C10.8624 6.7296 10.7705 6.9514 10.7106 7.18273C10.633 7.45821 10.3495 7.62119 10.0724 7.54962C9.79531 7.47806 9.62618 7.19817 9.69168 6.91957C9.72298 6.80796 9.75987 6.698 9.80221 6.59009C9.73882 6.57933 9.67485 6.5723 9.61063 6.56904C8.8549 6.5715 8.20395 7.1024 8.04958 7.8422C8.64322 7.90109 9.18482 8.20664 9.54221 8.6843C9.65437 8.8353 9.67746 9.03466 9.60278 9.20729C9.5281 9.37992 9.36699 9.49959 9.18015 9.52123C8.9933 9.54287 8.80911 9.46319 8.69695 9.3122V9.31167ZM16.7696 12.2901C17.2248 11.9768 17.538 11.4966 17.6412 10.9538C17.6735 10.7662 17.8046 10.6108 17.984 10.5472C18.1634 10.4836 18.3632 10.5219 18.5064 10.6472C18.6496 10.7725 18.714 10.9654 18.6748 11.1517C18.4222 12.4548 17.3859 13.4634 16.0764 13.6806C15.6915 14.6999 14.7139 15.3729 13.6243 15.3685C13.3336 15.3685 13.098 15.1329 13.098 14.8422C13.098 14.5515 13.3336 14.3159 13.6243 14.3159C14.1332 14.3167 14.6109 14.0704 14.9054 13.6554C14.2553 13.5163 13.6652 13.1767 13.2185 12.6843C13.023 12.4685 13.0395 12.135 13.2554 11.9396C13.4712 11.7441 13.8046 11.7606 14.0001 11.9764C14.721 12.7468 15.8946 12.8798 16.7696 12.2901ZM13.3159 8.42115C13.6066 8.42115 13.8422 8.65679 13.8422 8.94746C13.8422 9.23814 13.6066 9.47378 13.3159 9.47378C12.953 9.47378 12.6049 9.61795 12.3483 9.87458C12.0916 10.1312 11.9475 10.4793 11.9475 10.8422C11.9475 11.1329 11.7118 11.3685 11.4212 11.3685C11.1305 11.3685 10.8948 11.1329 10.8948 10.8422C10.8963 9.50569 11.9794 8.4226 13.3159 8.42115Z" fill="#EBF1FF"/>
    <path d="M14.4738 26.5905V20C14.4738 19.7093 14.7094 19.4737 15.0001 19.4737C15.2907 19.4737 15.5264 19.7093 15.5264 20V26.5905C19.2403 25.3504 23.2566 25.3504 26.9706 26.5905L25.0706 15.1579C24.8932 15.1284 24.7169 15.1084 24.5406 15.0858C24.4509 15.235 24.3495 15.3768 24.2374 15.51C24.0069 16.5879 23.3835 17.5414 22.4885 18.1847C22.6795 18.5251 22.8354 18.8839 22.9537 19.2558C23.0072 19.4163 23.0342 19.5845 23.0338 19.7537C23.035 20.4026 22.649 20.9897 22.0527 21.2458C21.8551 21.3298 21.6426 21.3731 21.428 21.3732C20.9371 21.3698 20.4723 21.1515 20.1564 20.7758C19.8722 20.445 19.501 20.2005 19.0848 20.07C17.5411 19.5526 16.8064 18.9684 16.5522 18.0042C16.1798 17.9787 15.8114 17.912 15.4537 17.8053C14.7024 18.5053 13.6678 18.8153 12.6554 18.6437C11.6429 18.4721 10.7682 17.8385 10.2895 16.93C8.50803 17.3675 6.64687 16.6124 5.67375 15.0574L5.31586 15.1053C5.08592 15.1353 4.90274 15.3123 4.8648 15.5411L3.02954 26.5863C6.74398 25.3478 10.7602 25.3492 14.4738 26.5905Z" fill="#EBF1FF"/>
    <path d="M26.7659 16.4901H26.359L28.009 26.4138C28.0677 26.7745 27.9358 27.1399 27.6602 27.3798C27.3846 27.6197 27.0045 27.7001 26.6553 27.5922C23.8488 26.6812 20.8583 26.4899 17.9585 27.0359L18.1164 28.9475H28.9843C29.1431 28.9476 29.2935 28.8765 29.3943 28.7538C29.4937 28.6337 29.5343 28.4754 29.5048 28.3222L27.2822 16.9159C27.2341 16.6687 27.0177 16.4903 26.7659 16.4901Z" fill="#EBF1FF"/>
    <path d="M15.2277 27.8421C15.1567 27.8766 15.0788 27.8946 14.9998 27.8947C14.9211 27.8942 14.8434 27.8762 14.7724 27.8421C14.2239 27.6078 13.6575 27.4175 13.0788 27.2731L12.8977 29.4573C13.0045 29.6252 13.7319 29.9999 14.9998 29.9999C16.2677 29.9999 16.9951 29.6252 17.1019 29.4584L16.9209 27.271C16.3422 27.416 15.776 27.607 15.2277 27.8421Z" fill="#EBF1FF"/>
    <path d="M14.9999 1.57895C15.2906 1.57895 15.5263 1.34331 15.5263 1.05263V0.526316C15.5263 0.23564 15.2906 0 14.9999 0C14.7093 0 14.4736 0.23564 14.4736 0.526316V1.05263C14.4736 1.34331 14.7093 1.57895 14.9999 1.57895Z" fill="#EBF1FF"/>
    <path d="M23.4828 5.20164C23.6223 5.20161 23.7562 5.14614 23.8549 5.04743L24.3812 4.52111C24.518 4.38897 24.5729 4.19328 24.5247 4.00927C24.4765 3.82525 24.3328 3.68154 24.1488 3.63338C23.9648 3.58521 23.7691 3.64008 23.637 3.7769L23.1107 4.30322C22.9602 4.45374 22.9152 4.68008 22.9966 4.87672C23.0781 5.07336 23.2699 5.20159 23.4828 5.20164Z" fill="#EBF1FF"/>
    <path d="M6.14526 5.04743C6.35177 5.24689 6.68004 5.24404 6.88306 5.04102C7.08608 4.838 7.08893 4.50973 6.88947 4.30322L6.36315 3.7769C6.23101 3.64008 6.03532 3.58521 5.85131 3.63338C5.66729 3.68154 5.52358 3.82525 5.47542 4.00927C5.42725 4.19328 5.48212 4.38897 5.61894 4.52111L6.14526 5.04743Z" fill="#EBF1FF"/>
    <path d="M10.0826 2.66211C10.1642 2.85874 10.3561 2.9869 10.5689 2.98685C10.6381 2.9867 10.7066 2.97311 10.7705 2.94685C10.8995 2.89341 11.002 2.7909 11.0554 2.66189C11.1088 2.53287 11.1088 2.38793 11.0553 2.25895L10.4505 0.800004C10.3813 0.622307 10.2213 0.49599 10.0324 0.469829C9.84343 0.443668 9.65514 0.521757 9.54019 0.673942C9.42523 0.826128 9.4016 1.02859 9.47842 1.20316L10.0826 2.66211Z" fill="#EBF1FF"/>
    <path d="M19.2294 2.94733C19.2933 2.9736 19.3618 2.98719 19.431 2.98733C19.6438 2.98739 19.8357 2.85922 19.9173 2.6626L20.5215 1.20365C20.5983 1.02908 20.5747 0.826616 20.4597 0.674431C20.3448 0.522245 20.1565 0.444156 19.9676 0.470317C19.7786 0.496478 19.6187 0.622795 19.5494 0.800492L18.9446 2.25891C18.891 2.38795 18.8908 2.53303 18.9443 2.66217C18.9977 2.79131 19.1002 2.8939 19.2294 2.94733Z" fill="#EBF1FF"/>
    <path d="M25.6974 9.25371C25.7666 9.25358 25.8351 9.23981 25.899 9.21318L27.3574 8.60897C27.5311 8.53705 27.6533 8.3779 27.6779 8.19147C27.7025 8.00504 27.6258 7.81966 27.4766 7.70515C27.3274 7.59065 27.1285 7.56442 26.9548 7.63634L25.4958 8.24055C25.263 8.33618 25.1305 8.58325 25.1796 8.8301C25.2287 9.07694 25.4457 9.25447 25.6974 9.25371Z" fill="#EBF1FF"/>
    <path d="M2.64279 8.60898L4.10121 9.21319C4.36979 9.32452 4.67777 9.19704 4.7891 8.92845C4.90043 8.65987 4.77295 8.35189 4.50437 8.24056L3.04542 7.63635C2.77683 7.52517 2.46897 7.65277 2.35779 7.92135C2.2466 8.18993 2.3742 8.4978 2.64279 8.60898Z" fill="#EBF1FF"/>
</svg>
