<svg width="30" height="30" viewBox="0 0 30 30" fill="none" xmlns="http://www.w3.org/2000/svg">
    <g clip-path="url(#clip0)">
        <path d="M6.3994 6.09632C6.3994 7.16336 5.53445 8.02831 4.46741 8.02831C3.40059 8.02831 2.53564 7.16336 2.53564 6.09632C2.53564 5.0295 3.40059 4.16455 4.46741 4.16455C5.53445 4.16455 6.3994 5.0295 6.3994 6.09632Z" fill="#EBF1FF"/>
        <path d="M6.94637 10.0341L9.33178 7.29045C9.41395 7.19661 9.4746 7.08606 9.51008 6.96658L10.6881 2.97008C10.8225 2.51437 10.562 2.03601 10.1063 1.90166C9.65084 1.7673 9.17225 2.02777 9.03789 2.48347L7.91317 6.29848L5.67791 8.84799H3.45752L1.73381 6.46304L1.92951 2.28938C1.95171 1.81468 1.58504 1.41208 1.11034 1.38965C0.635182 1.36722 0.233036 1.73412 0.210835 2.20882L0.000950274 6.683C-0.008205 6.87755 0.0490155 7.06935 0.162999 7.22728L1.98902 9.75253V25.7898C1.98902 26.4076 2.48981 26.9084 3.10756 26.9084C3.72532 26.9084 4.22611 26.4076 4.22611 25.7898V16.8488H4.70905V25.7898C4.70905 26.4076 5.20984 26.9084 5.8276 26.9084C6.44535 26.9084 6.94614 26.4076 6.94614 25.7898C6.94545 25.1322 6.94774 11.1425 6.94637 10.0341Z" fill="#EBF1FF"/>
        <path d="M26.8542 6.09632C26.8542 7.16336 25.9893 8.02831 24.9225 8.02831C23.8554 8.02831 22.9905 7.16336 22.9905 6.09632C22.9905 5.0295 23.8554 4.16455 24.9225 4.16455C25.9893 4.16455 26.8542 5.0295 26.8542 6.09632Z" fill="#EBF1FF"/>
        <path d="M29.7868 7.29024C29.9518 7.10187 30.0266 6.85101 29.9916 6.60313L29.2896 1.61923C29.2235 1.14888 28.7888 0.820892 28.3178 0.887496C27.8474 0.953643 27.5199 1.38875 27.5861 1.85933L28.2331 6.45253L26.1329 8.84778H23.7216L20.6438 7.38682L20.9968 3.32211C21.0377 2.84878 20.6873 2.43176 20.214 2.39079C19.7416 2.34959 19.3239 2.70001 19.2827 3.17334L18.878 7.83337C18.8469 8.19111 19.0417 8.53078 19.3662 8.68481L22.444 10.1455V25.7898C22.444 26.4076 22.9448 26.9084 23.5625 26.9084C24.1803 26.9084 24.6811 26.4076 24.6811 25.7898V16.8486H25.164V25.7896C25.164 26.4074 25.6648 26.9082 26.2826 26.9082C26.9003 26.9082 27.4011 26.4074 27.4011 25.7896C27.4004 25.132 27.4027 11.1423 27.4011 10.0338L29.7868 7.29024Z" fill="#EBF1FF"/>
        <path d="M11.2229 12.3472L10.897 12.8768L11.2229 13.1174V12.3472Z" fill="#EBF1FF"/>
        <path d="M18.042 12.2153V13.313L18.465 12.823L18.4615 12.8097L18.042 12.2153Z" fill="#EBF1FF"/>
        <path d="M19.4752 16.7598L19.4617 16.7753C19.0987 17.196 18.5673 17.3954 18.042 17.3462V26.9203H21.1985C21.6521 26.9203 21.9808 26.4882 21.86 26.051L19.4752 16.7598Z" fill="#EBF1FF"/>
        <path d="M9.91779 16.3008L7.41543 26.0511C7.29435 26.4883 7.62325 26.9204 8.0769 26.9204H11.2229C11.2229 26.1567 11.2229 18.1744 11.2229 16.9334C10.9141 16.914 10.607 16.8091 10.3392 16.6116L9.91779 16.3008Z" fill="#EBF1FF"/>
        <path d="M18.9616 16.3436L21.1874 13.7648C21.4841 13.421 21.5168 12.9122 21.2522 12.5314L19.2527 9.65364C18.783 8.97798 18.0115 8.57446 17.1886 8.57446C17.1813 8.57446 12.0939 8.57446 12.0859 8.57446C11.2157 8.57446 10.3936 9.03589 9.9404 9.77884L8.01527 12.934C7.74359 13.3791 7.85803 13.9607 8.27757 14.27L10.7314 16.0797C11.1798 16.4102 11.8056 16.313 12.1351 15.8742C12.4711 15.427 12.3565 14.774 11.9063 14.4418L10.2164 13.1958L11.6609 10.8285C11.6618 10.8269 11.663 10.8253 11.6639 10.8237C11.7499 10.6866 11.9637 10.7527 11.9637 10.9146V13.6634L12.2894 13.9035C13.0337 14.4524 13.2223 15.5061 12.6769 16.2528C12.4883 16.5112 12.2393 16.6989 11.9637 16.8117V27.8683C11.9637 28.5238 12.4737 29.0823 13.129 29.1056C13.8167 29.1301 14.3821 28.5796 14.3821 27.8971V18.2314H14.8829V27.8681C14.8829 28.5238 15.3928 29.0823 16.0481 29.1054C16.7359 29.1299 17.3012 28.5794 17.3012 27.8971C17.3012 27.4959 17.3012 17.6222 17.3012 17.0918C16.4395 16.5407 16.2747 15.3608 16.9355 14.595L17.3012 14.1713V10.8994C17.3012 10.7427 17.5049 10.6724 17.5954 10.8006C17.596 10.8015 17.5967 10.8026 17.5974 10.8035C17.5974 10.8035 19.0311 12.8669 19.1511 13.0393L17.453 15.0067C17.0822 15.4366 17.1207 16.1031 17.5592 16.4638C17.9817 16.8115 18.6047 16.7572 18.9616 16.3436ZM14.6377 12.5907C13.957 12.5907 13.4052 12.0388 13.4052 11.3579C13.4052 10.6701 13.9683 10.1254 14.6377 10.1254C15.3161 10.1254 15.8705 10.6781 15.8705 11.3579C15.8705 12.0388 15.3187 12.5907 14.6377 12.5907Z" fill="#EBF1FF"/>
        <path d="M16.7262 5.99603C16.7262 7.1496 15.7912 8.08458 14.6376 8.08458C13.4843 8.08458 12.5493 7.1496 12.5493 5.99603C12.5493 4.8427 13.4843 3.90771 14.6376 3.90771C15.7912 3.90771 16.7262 4.8427 16.7262 5.99603Z" fill="#EBF1FF"/>
    </g>
    <defs>
        <clipPath id="clip0">
            <rect width="30" height="30" fill="white"/>
        </clipPath>
    </defs>
</svg>