<svg width="30" height="30" viewBox="0 0 30 30" fill="none" xmlns="http://www.w3.org/2000/svg">
    <g clip-path="url(#clip0)">
        <path d="M24.1598 26.7396L20.7071 14.2644L18.9575 15.1486V27.8426H23.3205C23.8961 27.8426 24.3131 27.2942 24.1598 26.7396Z" fill="#EBF1FF"/>
        <path d="M5.83286 26.7398C5.67928 27.2943 6.09653 27.8427 6.67194 27.8427H11.0228C11.0228 27.2243 11.0228 15.6287 11.0228 15.0123L9.29402 14.2339L5.83286 26.7398Z" fill="#EBF1FF"/>
        <path d="M18.1676 14.7128L21.6045 12.9754C22.1616 12.6936 22.4097 12.0314 22.1746 11.4528L20.5363 7.42177C20.0755 6.28857 18.9874 5.55615 17.7641 5.55615C17.4281 5.55615 12.5128 5.55615 12.1587 5.55615C10.9354 5.55615 9.84726 6.28857 9.38675 7.42177L7.74818 11.4528C7.50533 12.0507 7.77862 12.7337 8.36708 12.9985L11.8131 14.5503V28.5604C11.8131 29.3576 12.4593 30 13.2526 30C14.0477 30 14.6922 29.3555 14.6922 28.5604V17.0533H15.2882V28.5604C15.2882 29.3555 15.9328 30 16.7279 30C17.5265 30 18.1676 29.3521 18.1676 28.5604C18.1676 24.7435 18.1676 14.7128 18.1676 14.7128ZM19.5356 11.3327L18.1676 12.0241V8.47554C18.1676 8.36591 18.318 8.33569 18.3603 8.43686C18.496 8.76164 18.7769 9.49658 19.5356 11.3327ZM10.4062 11.2853C11.2588 9.24504 11.4883 8.57487 11.6222 8.30045C11.6692 8.20477 11.8129 8.2375 11.8129 8.34416V11.9188L10.4062 11.2853ZM14.7989 11.0253L13.5648 9.79115C13.4222 9.64856 13.4222 9.41716 13.5648 9.27434L14.7989 8.04044C14.9415 7.89761 15.1729 7.89761 15.3155 8.04044L16.5496 9.27434C16.6922 9.41716 16.6922 9.64856 16.5496 9.79115L15.3155 11.0253C15.1729 11.1679 14.9415 11.1679 14.7989 11.0253Z" fill="#EBF1FF"/>
        <path d="M14.9964 4.97292C16.3644 4.97292 17.4827 3.86307 17.4827 2.48634C17.4827 1.11328 16.3696 0 14.9964 0C13.6231 0 12.51 1.11328 12.51 2.48634C12.51 3.87062 13.6359 4.97292 14.9964 4.97292Z" fill="#EBF1FF"/>
    </g>
    <defs>
        <clipPath id="clip0">
            <rect width="30" height="30" fill="white"/>
        </clipPath>
    </defs>
</svg>