<svg width="20" height="20" viewBox="0 0 20 20" fill="none" xmlns="http://www.w3.org/2000/svg">
    <g clip-path="url(#clip0)">
        <path d="M19.085 12.0233C19.0833 12.0217 19.0816 12.02 19.08 12.0183L17.9083 10.9417C17.9441 10.625 17.9616 10.3092 17.9616 10C17.9616 9.69083 17.9441 9.375 17.9083 9.05833L19.085 7.97667C19.5725 7.51833 19.685 6.79 19.3533 6.1975L17.9716 3.8075C17.6433 3.225 16.935 2.94833 16.285 3.15083L14.7666 3.63C14.2558 3.24417 13.71 2.9275 13.1383 2.685L12.7866 1.12417C12.6383 0.4625 12.0625 0 11.3858 0H8.61414C7.93748 0 7.36164 0.4625 7.21331 1.12417L6.86165 2.685C6.28998 2.9275 5.74498 3.24417 5.23331 3.63L3.71248 3.15C3.06331 2.94667 2.35498 3.225 2.03164 3.80083L0.642478 6.20583C0.314978 6.79 0.427478 7.51833 0.919978 7.98167L2.09164 9.05833C2.05581 9.375 2.03748 9.69083 2.03748 10C2.03748 10.3092 2.05498 10.625 2.09081 10.9417L0.914145 12.0233C0.426645 12.4817 0.314144 13.21 0.645811 13.8025L2.02748 16.1925C2.35498 16.775 3.06248 17.05 3.71414 16.8492L5.23248 16.37C5.74331 16.7558 6.28914 17.0725 6.86081 17.315L7.21248 18.8758C7.36164 19.5375 7.93748 20 8.61414 20H11.3858C12.0625 20 12.6383 19.5375 12.7866 18.8758L13.1383 17.3142C13.7108 17.0717 14.2558 16.755 14.7666 16.3692L16.2875 16.8492C16.9358 17.0508 17.6441 16.7733 17.9683 16.1983L19.3583 13.7942C19.685 13.21 19.5725 12.4817 19.085 12.0233ZM11.7 14.0758C11.7 14.5842 11.2833 15.0008 10.7666 15.0008H9.23331C8.78331 15.0008 8.29998 14.6675 8.29998 13.9258V13.4758H11.7V14.0758ZM12.375 11.6092C12.025 11.8925 11.8 12.2592 11.725 12.6425H8.28331C8.22498 12.2675 8.01664 11.9175 7.67498 11.6508C6.74998 10.9258 6.22498 9.83417 6.24998 8.65083C6.29165 6.6675 7.94998 5.02583 9.94164 5.00083C10.95 4.97583 11.9166 5.3675 12.6416 6.08417C13.3583 6.78417 13.75 7.72583 13.75 8.72583C13.75 9.85083 13.2508 10.9008 12.375 11.6092Z"
              fill="#EBF1FF"/>
    </g>
    <defs>
        <clipPath id="clip0">
            <rect width="20" height="20" fill="white"/>
        </clipPath>
    </defs>
</svg>