<svg width="20" height="20" viewBox="0 0 20 20" fill="none" xmlns="http://www.w3.org/2000/svg">
    <g clip-path="url(#clip0)">
        <path d="M10.0456 0C10.0402 0 10.0295 0 10.0134 0C4.59055 0 0.18042 4.41013 0.18042 9.83302C0.18042 12.0461 0.935982 14.1949 2.3185 15.9257L0.887755 19.2534C0.769866 19.5267 0.898472 19.8429 1.1664 19.9554C1.26286 19.9983 1.37003 20.009 1.47184 19.9929L6.71791 19.0712C7.76819 19.4517 8.87206 19.6446 9.98665 19.6393C15.4096 19.6393 19.8197 15.2291 19.8197 9.80623C19.8304 4.39941 15.4524 0.0053586 10.0456 0ZM6.6804 7.8557H9.57404C9.86876 7.8557 10.1099 8.09684 10.1099 8.39156C10.1099 8.68629 9.86876 8.92742 9.57404 8.92742H6.6804C6.38568 8.92742 6.14454 8.68629 6.14454 8.39156C6.14454 8.09684 6.38568 7.8557 6.6804 7.8557ZM13.3251 11.6067H6.6804C6.38568 11.6067 6.14454 11.3656 6.14454 11.0709C6.14454 10.7761 6.38568 10.535 6.6804 10.535H13.3251C13.6198 10.535 13.8609 10.7761 13.8609 11.0709C13.8609 11.3656 13.6198 11.6067 13.3251 11.6067Z" fill="#EBF1FF"/>
    </g>
    <defs>
        <clipPath id="clip0">
            <rect width="20" height="20" fill="white"/>
        </clipPath>
    </defs>
</svg>