<svg width="20" height="21" viewBox="0 0 20 21" fill="none" xmlns="http://www.w3.org/2000/svg">
    <path d="M17.322 14.7768H16.0788V3.74231C16.0788 2.09774 14.8834 0.771484 13.4012 0.771484H2.54726C2.49944 0.771484 2.45163 0.771484 2.40381 0.79801C0.921559 0.983686 -0.130364 2.44257 0.0130802 4.08713C0.156524 5.46644 1.13673 6.5805 2.40381 6.73965C2.45163 6.73965 2.49944 6.76618 2.54726 6.76618H2.6907V17.8007V17.8272C2.71461 19.4452 3.90998 20.7715 5.36833 20.7715H17.1307H17.2025H17.322C18.8043 20.7715 19.9996 19.4452 19.9996 17.8007C20.0235 16.103 18.8043 14.7768 17.322 14.7768ZM2.6907 5.14814V5.12162C1.99739 5.12162 1.44752 4.51154 1.44752 3.74231C1.44752 2.97308 1.99739 2.363 2.6907 2.363H11.0344C10.6279 3.23833 10.6279 4.27281 11.0344 5.14814H2.6907ZM14.1662 15.9969H4.36422V14.4054H14.1662V15.9969ZM14.1662 12.8139H4.36422V11.2224H14.1662V12.8139ZM14.1662 9.6309H4.36422V8.03939H14.1662V9.6309ZM17.3459 19.1269C16.6526 19.1269 16.1027 18.5168 16.1027 17.7476V16.3683H17.3459C18.0392 16.3683 18.5891 16.9784 18.5891 17.7476C18.5891 18.5168 18.0392 19.1269 17.3459 19.1269Z" fill="#EBF1FF"/>
</svg>