<svg width="20" height="20" viewBox="0 0 20 20" fill="none" xmlns="http://www.w3.org/2000/svg">
    <path d="M8.62595 0C6.49099 0 4.75415 1.73688 4.75415 3.87184C4.75415 6.00672 6.49103 7.74363 8.62595 7.74363C10.7609 7.74363 12.4978 6.00676 12.4978 3.87184C12.4978 1.73688 10.7609 0 8.62595 0Z"
          fill="#EBF1FF"/>
    <path d="M10.9107 8.55859H6.34082C4.72539 8.55859 3.41113 9.87285 3.41113 11.4883V17.2301C3.41113 18.1993 4.19969 18.9879 5.16895 18.9879H8.5648C8.00293 18.1746 7.67332 17.1892 7.67332 16.1281C7.67332 13.347 9.9359 11.0845 12.717 11.0845C13.0982 11.0845 13.4695 11.1272 13.8267 11.2077C13.685 9.72348 12.4316 8.55859 10.9107 8.55859Z"
          fill="#EBF1FF"/>
    <path d="M15.8364 13.8374L10.4263 19.2475C11.0682 19.7202 11.8605 19.9999 12.717 19.9999C14.8519 19.9999 16.5888 18.2631 16.5888 16.1281C16.5889 15.2716 16.3091 14.4793 15.8364 13.8374Z"
          fill="#EBF1FF"/>
    <path d="M12.717 12.2563C10.5821 12.2563 8.84521 13.9932 8.84521 16.1281C8.84521 16.9847 9.12498 17.777 9.59764 18.4189L15.0078 13.0088C14.3659 12.5361 13.5735 12.2563 12.717 12.2563Z"
          fill="#EBF1FF"/>
</svg>