<svg width="20" height="20" viewBox="0 0 20 20" fill="none" xmlns="http://www.w3.org/2000/svg">
    <g clip-path="url(#clip0)">
        <path d="M19.1787 0.106994C18.7791 -0.118073 18.2728 0.0235286 18.0479 0.423004L17.0852 2.13229C17.6524 2.70679 17.9019 3.52466 17.7636 4.31094L19.4946 1.23782C19.7196 0.838348 19.578 0.332061 19.1787 0.106994Z" fill="#EBF1FF"/>
        <path d="M16.0537 9.87759L13.7718 9.80084L14.0191 8.03006L14.0901 9.2741L14.8539 9.29974L15.4345 8.3183C15.7435 7.79583 15.6381 7.14352 15.2169 6.74191L15.8759 6.29773C15.6941 6.34 15.5064 6.36227 15.3161 6.36227C14.7778 6.36227 14.2408 6.18527 13.7946 5.83936C13.5113 6.18787 5.4754 16.0694 5.07059 16.5673C4.73917 16.9749 4.19138 17.1308 3.69409 16.9577L2.34705 18.3421C1.97077 18.7287 1.97931 19.347 2.36597 19.7232C2.75247 20.0991 3.37076 20.091 3.74704 19.7042L7.66718 15.6752C7.71173 15.6295 7.75171 15.5795 7.78635 15.5261C9.81805 12.3968 9.68668 12.6019 9.71201 12.559L10.2665 12.8869L10.7363 15.8197L8.26242 17.873C7.84738 18.2174 7.79016 18.8333 8.13471 19.2483C8.48016 19.6647 9.09616 19.7195 9.50998 19.376L12.4127 16.9668C12.6785 16.7463 12.808 16.4018 12.7532 16.0607L12.3486 13.5353L13.267 11.9827C13.1956 11.9802 12.5968 11.9601 12.5295 11.9578C11.7475 11.9316 11.2118 11.1592 11.4678 10.4104L12.302 8.32196L11.9999 10.4847C11.9319 10.9723 12.3011 11.4126 12.7941 11.4293L15.9979 11.5371C16.0073 11.5374 16.0168 11.5376 16.0262 11.5376C16.4718 11.5376 16.8405 11.184 16.8556 10.7354C16.8708 10.2771 16.5119 9.893 16.0537 9.87759Z" fill="#EBF1FF"/>
        <path d="M4.61242 16.1948L13.2683 5.55069L12.6726 5.19836C12.263 4.95605 11.7505 4.96094 11.3444 5.21545L0.698384 11.889C0.351094 12.1068 0.286092 12.5862 0.563039 12.8885L3.61922 16.2241C3.88976 16.5193 4.35958 16.5056 4.61242 16.1948Z" fill="#EBF1FF"/>
        <path d="M16.2819 2.2482C15.376 1.71231 14.217 2.01963 13.688 2.91394C13.1554 3.81421 13.4536 4.97556 14.3537 5.50794C15.2596 6.04383 16.4187 5.73651 16.9477 4.8422C17.4801 3.94193 17.1821 2.78058 16.2819 2.2482Z" fill="#EBF1FF"/>
    </g>
    <defs>
        <clipPath id="clip0">
            <rect width="20" height="20" fill="white"/>
        </clipPath>
    </defs>
</svg>