<svg width="20" height="20" viewBox="0 0 20 20" fill="none" xmlns="http://www.w3.org/2000/svg">
    <path d="M16.5539 1.36418L14.1865 0L11.819 1.36418L9.45152 0L7.08407 1.36418L5.30884 0.341249V16.4149H15.8757V18.7732C15.8757 19.4496 16.426 20 17.1024 20C17.7789 20 18.3292 19.4496 18.3292 18.7732V0.341249L16.5539 1.36418ZM6.75079 10.7059V9.52143H11.819V10.7059H6.75079ZM16.8873 8.11967H6.75079V6.93522H16.8873V8.11967ZM16.8873 5.53347H6.75079V4.34902H16.8873V5.53347Z" fill="#EBF1FF"/>
    <path d="M14.6913 18.7732V17.5994H1.6709V18.7732C1.6709 19.4497 2.22125 20 2.89769 20H15.0273C14.8139 19.6404 14.6913 19.2209 14.6913 18.7732Z" fill="#EBF1FF"/>
</svg>
