<svg width="20" height="18" viewBox="0 0 20 18" fill="none" xmlns="http://www.w3.org/2000/svg">
    <path d="M5.3507 17.4375C6.4373 17.4375 7.47586 17.2166 8.13906 16.5534C9.28641 15.4061 9.28234 13.5528 8.13906 12.4107C7.03356 11.304 5.1018 11.304 3.99629 12.4107C2.4732 13.9332 1.24109 15.1011 0 16.2702L0.905234 16.5906C1.25598 16.7148 3.38289 17.4375 5.3507 17.4375Z" fill="#EBF1FF"/>
    <path d="M9.92059 13.1148L11.6253 11.4101L9.13953 8.92456L7.41699 10.6471C8.00102 10.8446 8.53922 11.1533 8.96809 11.5828C9.40676 12.0208 9.71938 12.5465 9.92059 13.1148Z" fill="#EBF1FF"/>
    <path d="M9.97021 8.10046L17.5088 0.561882L19.9941 3.04715L12.4555 10.5857L9.97021 8.10046Z" fill="#EBF1FF"/>
</svg>