<svg width="20" height="20" viewBox="0 0 20 20" fill="none" xmlns="http://www.w3.org/2000/svg">
    <path d="M14.9608 17.5501C14.9608 17.0719 14.9608 1.60747 14.9608 1.22216C14.9608 0.898572 14.6985 0.63623 14.3749 0.63623H0.585932C0.262341 0.63623 0 0.898572 0 1.22216V16.3783C0 17.9937 1.31425 19.3079 2.92966 19.3079H15.5483C15.1797 18.8179 14.9608 18.2091 14.9608 17.5501ZM3.12497 11.8861H4.99995C5.32354 11.8861 5.58588 12.1485 5.58588 12.4721C5.58588 12.7956 5.32354 13.058 4.99995 13.058H3.12497C2.80138 13.058 2.53904 12.7956 2.53904 12.4721C2.53904 12.1485 2.80138 11.8861 3.12497 11.8861ZM2.53904 9.97208C2.53904 9.64849 2.80138 9.38614 3.12497 9.38614H4.99995C5.32354 9.38614 5.58588 9.64849 5.58588 9.97208C5.58588 10.2957 5.32354 10.558 4.99995 10.558H3.12497C2.80138 10.558 2.53904 10.2957 2.53904 9.97208ZM11.8749 16.4955H3.12497C2.80138 16.4955 2.53904 16.2331 2.53904 15.9095C2.53904 15.5859 2.80138 15.3236 3.12497 15.3236H11.8749C12.1985 15.3236 12.4608 15.5859 12.4608 15.9095C12.4608 16.2331 12.1985 16.4955 11.8749 16.4955ZM12.4608 13.4095C12.4608 13.7331 12.1985 13.9955 11.8749 13.9955H7.49993C7.17634 13.9955 6.914 13.7331 6.914 13.4095V9.03458C6.914 8.71099 7.17634 8.44865 7.49993 8.44865H11.8749C12.1985 8.44865 12.4608 8.71099 12.4608 9.03458V13.4095ZM11.8749 7.12054H3.12497C2.80138 7.12054 2.53904 6.8582 2.53904 6.53461C2.53904 6.21102 2.80138 5.94868 3.12497 5.94868H11.8749C12.1985 5.94868 12.4608 6.21102 12.4608 6.53461C12.4608 6.8582 12.1985 7.12054 11.8749 7.12054ZM11.8749 4.62057H3.12497C2.80138 4.62057 2.53904 4.35823 2.53904 4.03463C2.53904 3.71104 2.80138 3.4487 3.12497 3.4487H11.8749C12.1985 3.4487 12.4608 3.71104 12.4608 4.03463C12.4608 4.35823 12.1985 4.62057 11.8749 4.62057Z" fill="#EBF1FF"/>
    <path d="M8.08594 9.62061H11.2891V12.8237H8.08594V9.62061Z" fill="#EBF1FF"/>
    <path d="M19.4139 4.69873H16.1327C16.1327 17.9757 16.1307 17.5506 16.1362 17.5506C16.1867 18.3686 16.7458 19.0485 17.501 19.2789C18.709 19.6475 19.9476 18.7736 19.9979 17.5074C20.0009 17.5074 19.9998 17.8001 19.9998 5.28466C19.9998 4.96107 19.7375 4.69873 19.4139 4.69873Z" fill="#EBF1FF"/>
</svg>
