<svg width="13" height="13" viewBox="0 0 13 13" fill="none" xmlns="http://www.w3.org/2000/svg">
    <path d="M13 8.06436L11.4357 4.93564L9.87144 8.06436H10.9251C10.2618 10.1349 8.32208 11.6399 6.03353 11.6399C3.19955 11.6399 0.893611 9.33406 0.893611 6.5C0.893611 3.66602 3.19955 1.36008 6.03353 1.36008C8.21719 1.36008 10.0827 2.73125 10.8256 4.65638L11.3393 3.62885C10.3173 1.74678 8.32256 0.466229 6.03393 0.466229C2.70692 0.46615 0 3.17291 0 6.5C0 9.82685 2.70692 12.5339 6.03385 12.5339C8.81958 12.5339 11.1652 10.6347 11.8565 8.06444H13V8.06436Z"
          fill="#EBF1FF"/>
    <path d="M2.83057 7.7039H3.39562L3.56712 7.0858H4.25669L4.4427 7.7039H5.02858L4.28182 5.29562H3.56712L2.83057 7.7039ZM3.78839 6.16746C3.82771 6.02795 3.86345 5.84569 3.89926 5.70299H3.90628C3.9421 5.84569 3.98509 6.02492 4.02808 6.16746L4.1782 6.67899H3.64577L3.78839 6.16746Z"
          fill="#EBF1FF"/>
    <path d="M6.51963 5.72093C6.78373 5.72093 6.94805 5.76743 7.0803 5.82415L7.19484 5.38815C7.07687 5.33112 6.83733 5.2701 6.52665 5.2701C5.73689 5.2701 5.15469 5.72723 5.15046 6.52792C5.14711 6.8816 5.26851 7.19571 5.49026 7.40358C5.71185 7.61799 6.02971 7.72871 6.46954 7.72871C6.787 7.72871 7.10567 7.65014 7.27317 7.59302V6.32452H6.37653V6.74975H6.74864V7.2533C6.7054 7.27516 6.60522 7.28912 6.48023 7.28912C6.03322 7.28912 5.72269 6.99582 5.72269 6.49912C5.72269 5.97794 6.06537 5.72093 6.51963 5.72093Z"
          fill="#EBF1FF"/>
    <path d="M9.1867 5.74255V5.29602H7.7002V7.7039H9.23687V7.25777H8.24699V6.68601H9.13342V6.24252H8.24699V5.74255H9.1867Z"
          fill="#EBF1FF"/>
</svg>