<svg width="13" height="13" viewBox="0 0 13 13" fill="none" xmlns="http://www.w3.org/2000/svg">
    <path d="M1.3833 0C0.753258 0 0.240723 0.512535 0.240723 1.14258V10.3437C0.559984 10.102 0.952981 9.95312 1.3833 9.95312H10.1431V0H1.3833ZM4.04932 3.07227H4.81104V3.83398H4.04932V3.07227ZM4.04932 6.11914H4.81104V6.88086H4.04932V6.11914ZM3.66846 3.07227C3.45832 3.07227 3.2876 3.24299 3.2876 3.45312V4.97656C3.2876 5.27026 3.17314 5.53566 2.99043 5.73828C3.17314 5.9409 3.2876 6.20631 3.2876 6.5V8.02344C3.2876 8.23357 3.45832 8.4043 3.66846 8.4043V9.16601C3.03841 9.16601 2.52588 8.65348 2.52588 8.02344V6.5C2.52588 6.28987 2.35515 6.11914 2.14502 6.11914V5.35742C2.35515 5.35742 2.52588 5.18669 2.52588 4.97656V3.45312C2.52588 2.82308 3.03841 2.31055 3.66846 2.31055V3.07227ZM6.33447 8.4043H4.04932V7.64258H6.33447V8.4043ZM6.33447 6.88086H5.57275V6.11914H6.33447V6.88086ZM6.33447 5.35742H4.04932V4.5957H6.33447V5.35742ZM6.33447 3.83398H5.57275V3.07227H6.33447V3.83398ZM8.23877 6.11914C8.02864 6.11914 7.85791 6.28987 7.85791 6.5V8.02344C7.85791 8.65348 7.34538 9.16601 6.71533 9.16601V8.4043C6.92547 8.4043 7.09619 8.23357 7.09619 8.02344V6.5C7.09619 6.20631 7.21065 5.9409 7.39336 5.73828C7.21065 5.53566 7.09619 5.27026 7.09619 4.97656V3.45312C7.09619 3.24299 6.92547 3.07227 6.71533 3.07227V2.31055C7.34538 2.31055 7.85791 2.82308 7.85791 3.45312V4.97656C7.85791 5.18669 8.02864 5.35742 8.23877 5.35742V6.11914Z"
          fill="#EBF1FF"/>
    <path d="M10.1431 13H1.3833C0.753258 13 0.240723 12.4875 0.240723 11.8574C0.240723 11.2274 0.753258 10.7148 1.3833 10.7148H10.1431V13Z"
          fill="#EBF1FF"/>
    <path d="M12.7589 1.54883H10.9048V4.5957H12.7589L11.7435 3.07227L12.7589 1.54883Z" fill="#EBF1FF"/>
</svg>
