<svg width="13" height="13" viewBox="0 0 13 13" fill="none" xmlns="http://www.w3.org/2000/svg">
    <path d="M6.4963 1.71365C3.6627 -0.76474 0.0598121 1.41285 0.00073262 4.36492C-0.0143229 5.11726 0.202852 5.85011 0.635145 6.52572H3.43714L3.93552 5.69506C4.08024 5.45389 4.43045 5.44612 4.58337 5.68655L5.63489 7.33892L7.16768 4.10311C7.30135 3.82076 7.69972 3.8118 7.84716 4.08559L9.16107 6.52572H12.3575C14.7253 2.82507 10.0457 -1.39075 6.4963 1.71365Z"
          fill="#EBF1FF"/>
    <path d="M8.59851 7.0871L7.53381 5.1098L6.02823 8.28821C5.90015 8.55863 5.5234 8.58211 5.36277 8.32965L4.27182 6.61533L3.97952 7.10248C3.91069 7.21719 3.78674 7.28737 3.65297 7.28737H1.23779C1.3135 7.3666 0.91 6.96391 6.22789 12.2543C6.37641 12.402 6.61651 12.4021 6.76506 12.2543C12.0011 7.04531 11.6796 7.36645 11.7552 7.28737H8.93382C8.7937 7.28739 8.66492 7.21046 8.59851 7.0871Z"
          fill="#EBF1FF"/>
</svg>
