<svg width="20" height="20" viewBox="0 0 20 20" fill="none" xmlns="http://www.w3.org/2000/svg">
    <path d="M0.714298 18.5366C0.425392 18.5366 0.164924 18.7107 0.0543774 18.9776C-0.0561692 19.2445 0.00496347 19.5518 0.209299 19.756C0.491877 20.026 0.936759 20.026 1.21934 19.756C1.42363 19.5518 1.4848 19.2445 1.37426 18.9776C1.26367 18.7106 1.0032 18.5366 0.714298 18.5366Z"
          fill="#EBF1FF"/>
    <path d="M1.43311 18.0271C1.53951 18.0847 1.63756 18.1567 1.72443 18.2409C1.80865 18.3275 1.88154 18.4244 1.94139 18.5293L4.03173 16.4388L3.52669 15.9338L1.43311 18.0271Z"
          fill="#EBF1FF"/>
    <path d="M6.05204 16.4388H6.052L4.81165 15.1984L4.80829 15.1962L4.80607 15.1928L4.78939 15.1761L3.27424 13.6608C3.13467 13.5221 2.90912 13.5224 2.76994 13.6616C2.63076 13.8007 2.63033 14.0262 2.76904 14.1659L5.7995 17.1963C5.93907 17.3357 6.16512 17.3357 6.30469 17.1963C6.44372 17.0567 6.44364 16.8309 6.30454 16.6913L6.05204 16.4388Z"
          fill="#EBF1FF"/>
    <path d="M7.47133 9.47479L9.4941 7.45772L2.26048 0.244648L0.0375977 0.0419922L0.240371 2.26437L7.47133 9.47479Z"
          fill="#EBF1FF"/>
    <path d="M15.9685 16.4389L18.0589 18.5294C18.1187 18.4245 18.1915 18.3276 18.2758 18.241C18.3627 18.1568 18.4607 18.0848 18.5671 18.0272L16.4735 15.9339L15.9685 16.4389Z"
          fill="#EBF1FF"/>
    <path d="M19.9458 18.9776C19.8352 18.7107 19.5748 18.5366 19.2858 18.5366C18.9969 18.5366 18.7365 18.7107 18.6259 18.9776C18.5154 19.2445 18.5765 19.5518 18.7808 19.756C19.0634 20.026 19.5083 20.026 19.7909 19.756C19.9952 19.5517 20.0563 19.2445 19.9458 18.9776Z"
          fill="#EBF1FF"/>
    <path d="M12.2759 9.7271L12.2773 9.72616L19.7609 2.26371L19.9628 0.041687L17.7401 0.24364L10.2539 7.70874L10.253 7.71015L10.2516 7.71113L7.72493 10.2307L7.72442 10.2314L7.7236 10.2319L4.28467 13.6613L5.06146 14.4381L8.31907 11.1805C8.45887 11.0431 8.68321 11.0442 8.8218 11.1827C8.96036 11.3213 8.96137 11.5456 8.82407 11.6855L5.56646 14.9431L6.30498 15.6816L9.74664 12.2497L9.74727 12.2488L9.74821 12.2481L12.2749 9.72854L12.2759 9.7271Z"
          fill="#EBF1FF"/>
    <path d="M17.231 13.6608C17.0915 13.5213 16.8653 13.5214 16.7259 13.6609L16.4764 13.9104L16.4739 13.9141L15.192 15.1959L15.1918 15.1962L15.1915 15.1964L13.949 16.4389L13.9458 16.441L13.6954 16.6914C13.5564 16.831 13.5567 17.0567 13.696 17.196C13.8352 17.3353 14.061 17.3355 14.2006 17.1964L17.2311 14.166C17.3705 14.0264 17.3705 13.8002 17.231 13.6608Z"
          fill="#EBF1FF"/>
    <path d="M14.4336 14.943L12.9617 13.4711C12.8244 13.3313 12.8254 13.107 12.964 12.9684C13.1025 12.8298 13.3269 12.8288 13.4667 12.9661L14.9386 14.4379L15.7153 13.6613L12.5288 10.4838L10.5059 12.501L13.6955 15.681L14.4336 14.943Z"
          fill="#EBF1FF"/>
</svg>
