<svg width="13" height="13" viewBox="0 0 13 13" fill="none" xmlns="http://www.w3.org/2000/svg">
    <g clip-path="url(#clip0)">
        <path d="M6.5 7.69897C7.13352 7.69897 7.64893 7.18357 7.64893 6.55005C7.64893 5.91653 7.13352 5.40112 6.5 5.40112C5.86648 5.40112 5.35107 5.91653 5.35107 6.55005C5.35107 7.18357 5.86648 7.69897 6.5 7.69897ZM6.5 6.16919C6.71351 6.16919 6.87162 6.3437 6.88086 6.55005C6.89008 6.75574 6.69921 6.93091 6.5 6.93091C6.28649 6.93091 6.12838 6.7564 6.11914 6.55005C6.10992 6.34436 6.30079 6.16919 6.5 6.16919Z"
              fill="#EBF1FF"/>
        <path d="M12.9029 6.29596C12.8737 6.26336 12.1748 5.48844 11.0433 4.70689C9.53057 3.66194 7.9595 3.10962 6.5 3.10962C5.0405 3.10962 3.46945 3.66194 1.95665 4.70689C0.82517 5.48847 0.126318 6.26336 0.0971191 6.29596C-0.032373 6.44059 -0.032373 6.65945 0.0971191 6.8041C0.126318 6.83671 0.82517 7.61163 1.95665 8.39318C3.46945 9.43813 5.04052 9.99045 6.5 9.99045C7.95948 9.99045 9.53055 9.43813 11.0433 8.39318C12.1748 7.6116 12.8737 6.83671 12.9029 6.8041C13.0324 6.65948 13.0324 6.44061 12.9029 6.29596ZM6.5 4.6394C7.55353 4.6394 8.41064 5.49651 8.41064 6.55005C8.41064 7.60358 7.55353 8.46069 6.5 8.46069C5.44647 8.46069 4.58936 7.60358 4.58936 6.55005C4.58936 5.49651 5.44647 4.6394 6.5 4.6394Z"
              fill="#EBF1FF"/>
        <path d="M6.5 2.54468C6.71034 2.54468 6.88086 2.37415 6.88086 2.16382V0.887939C6.88086 0.677604 6.71034 0.50708 6.5 0.50708C6.28966 0.50708 6.11914 0.677604 6.11914 0.887939V2.16382C6.11914 2.37415 6.28966 2.54468 6.5 2.54468Z"
              fill="#EBF1FF"/>
        <path d="M3.85468 2.70626C3.92816 2.81589 4.04866 2.87513 4.1714 2.87513C4.2443 2.87513 4.31798 2.85423 4.38308 2.81061C4.55782 2.69351 4.60454 2.45695 4.48744 2.28221L3.75685 1.19206C3.63977 1.01735 3.40316 0.970603 3.22844 1.0877C3.05371 1.20481 3.00699 1.44137 3.12409 1.61611L3.85468 2.70626Z"
              fill="#EBF1FF"/>
        <path d="M8.61663 2.81063C8.68173 2.85428 8.75541 2.87515 8.82831 2.87515C8.95105 2.87515 9.07158 2.81591 9.14506 2.70627L9.87562 1.61613C9.9927 1.44139 9.94598 1.20482 9.77127 1.08772C9.59653 0.970596 9.35996 1.01734 9.24284 1.19208L8.51227 2.28222C8.39517 2.45696 8.44189 2.69353 8.61663 2.81063Z"
              fill="#EBF1FF"/>
        <path d="M6.5 10.4553C6.28966 10.4553 6.11914 10.6258 6.11914 10.8362V12.1121C6.11914 12.3224 6.28966 12.4929 6.5 12.4929C6.71034 12.4929 6.88086 12.3224 6.88086 12.1121V10.8362C6.88086 10.6258 6.71034 10.4553 6.5 10.4553Z"
              fill="#EBF1FF"/>
        <path d="M9.14555 10.2939C9.02844 10.1191 8.79183 10.0724 8.61712 10.1895C8.44238 10.3066 8.39566 10.5432 8.51276 10.7179L9.24332 11.8081C9.3168 11.9177 9.43731 11.9769 9.56007 11.9769C9.63297 11.9769 9.70665 11.956 9.77175 11.9124C9.94649 11.7953 9.99321 11.5588 9.87611 11.384L9.14555 10.2939Z"
              fill="#EBF1FF"/>
        <path d="M4.38308 10.1895C4.20837 10.0724 3.9718 10.1191 3.85468 10.2939L3.12409 11.384C3.00699 11.5588 3.05371 11.7953 3.22844 11.9124C3.29355 11.9561 3.36723 11.9769 3.44013 11.9769C3.56286 11.9769 3.68339 11.9177 3.75685 11.8081L4.48744 10.7179C4.60456 10.5432 4.55782 10.3066 4.38308 10.1895Z"
              fill="#EBF1FF"/>
    </g>
    <defs>
        <clipPath id="clip0">
            <rect width="13" height="13" fill="white"/>
        </clipPath>
    </defs>
</svg>