<svg width="13" height="13" viewBox="0 0 13 13" fill="none" xmlns="http://www.w3.org/2000/svg">
    <path d="M0.158842 12.0757L3.85568 8.37891C3.1396 7.49438 2.70844 6.37043 2.70844 5.14628C2.70844 2.30906 5.01701 0.000488281 7.85423 0.000488281C10.6915 0.000488281 13 2.30903 13 5.14625C13 7.98348 10.6914 10.292 7.85421 10.292C6.63006 10.292 5.50611 9.86089 4.62158 9.14481L0.924743 12.8416C0.819118 12.9473 0.680462 13.0004 0.54178 13.0004C0.403098 13.0004 0.264441 12.9473 0.158816 12.8416C-0.0529642 12.6299 -0.0529642 12.2875 0.158842 12.0757ZM7.85421 9.20871C10.0945 9.20871 11.9167 7.38657 11.9167 5.14625C11.9167 2.90593 10.0945 1.08379 7.85421 1.08379C5.61389 1.08379 3.79175 2.90593 3.79175 5.14625C3.79175 7.38657 5.61391 9.20871 7.85421 9.20871Z"
          fill="#EBF1FF"/>
</svg>