<svg width="20" height="16" viewBox="0 0 20 16" fill="none" xmlns="http://www.w3.org/2000/svg">
    <path d="M3.05944 0.36084C3.0589 0.36084 3.0583 0.36084 3.05776 0.36084C2.8686 0.36084 2.69069 0.434577 2.55634 0.568585C2.42052 0.704073 2.3457 0.884478 2.3457 1.07653V11.8082C2.3457 12.2018 2.66712 12.5227 3.06227 12.5237C4.72814 12.5277 7.51912 12.8749 9.44451 14.8898V3.65876C9.44451 3.52536 9.41044 3.40004 9.34613 3.29634C7.76586 0.751413 4.72908 0.364746 3.05944 0.36084Z"
          fill="#EBF1FF"/>
    <path d="M17.6544 11.8078V1.07604C17.6544 0.88399 17.5796 0.703585 17.4438 0.568096C17.3094 0.434089 17.1314 0.360352 16.9424 0.360352C16.9418 0.360352 16.9412 0.360352 16.9407 0.360352C15.2711 0.364325 12.2343 0.750993 10.654 3.29592C10.5897 3.39962 10.5557 3.52494 10.5557 3.65834V14.8893C12.4811 12.8744 15.272 12.5272 16.9379 12.5232C17.333 12.5222 17.6544 12.2013 17.6544 11.8078Z"
          fill="#EBF1FF"/>
    <path d="M19.2846 2.83545H18.7657V11.8079C18.7657 12.8127 17.9471 13.6321 16.9407 13.6345C15.5277 13.6379 13.1979 13.9142 11.5479 15.4759C14.4016 14.7772 17.41 15.2314 19.1244 15.6221C19.3385 15.6708 19.5597 15.6205 19.7312 15.4838C19.9022 15.3474 20.0002 15.1436 20.0002 14.9248V3.55101C20.0003 3.15646 19.6792 2.83545 19.2846 2.83545Z"
          fill="#EBF1FF"/>
    <path d="M1.23448 11.8079V2.83545H0.715558C0.321079 2.83545 0 3.15646 0 3.55101V14.9246C0 15.1434 0.0980475 15.3472 0.268957 15.4836C0.440338 15.6202 0.661349 15.6708 0.87576 15.6219C2.59024 15.2311 5.59867 14.777 8.45228 15.4757C6.80231 13.9141 4.47247 13.6378 3.05947 13.6345C2.05321 13.6321 1.23448 12.8127 1.23448 11.8079Z"
          fill="#EBF1FF"/>
</svg>