<svg width="13" height="13" viewBox="0 0 13 13" fill="none" xmlns="http://www.w3.org/2000/svg">
    <path d="M8.95634 1.3208H4.04346V2.08249H8.95634V1.3208Z" fill="#EBF1FF"/>
    <path d="M3.28187 1.70166H2.52881V1.99794H3.28187V1.70166Z" fill="#EBF1FF"/>
    <path d="M10.4713 1.70166H9.71826V1.99794H10.4713V1.70166Z" fill="#EBF1FF"/>
    <path d="M11.2331 1.3208V2.75964H8.95668V1.70163H4.04379V2.75964H1.76735V1.3208H0.000488281V3.68203H13V1.3208H11.2331Z" fill="#EBF1FF"/>
    <path d="M0.000488281 4.44385V13.0002H13V4.44385H0.000488281ZM2.8416 11.5783H1.58304V10.8166H2.8416V11.5783ZM2.8416 9.92802H1.58304V9.16633H2.8416V9.92802ZM2.8416 8.27768H1.58304V7.51599H2.8416V8.27768ZM4.98548 11.5783H3.72717V10.8166H4.98548V11.5783ZM4.98548 9.92802H3.72717V9.16633H4.98548V9.92802ZM4.98548 8.27768H3.72717V7.51599H4.98548V8.27768ZM7.12939 11.5783H5.87108V10.8166H7.12939V11.5783ZM7.12939 9.92802H5.87108V9.16633H7.12939V9.92802ZM7.12939 8.27768H5.87108V7.51599H7.12939V8.27768ZM7.12939 6.62737H5.87108V5.86567H7.12939V6.62737ZM9.2733 11.5783H8.01499V10.8166H9.2733V11.5783ZM9.2733 9.92802H8.01499V9.16633H9.2733V9.92802ZM9.2733 8.27768H8.01499V7.51599H9.2733V8.27768ZM9.2733 6.62737H8.01499V5.86567H9.2733V6.62737ZM11.4174 9.92802H10.1589V9.16633H11.4174V9.92802ZM11.4174 8.27768H10.1589V7.51599H11.4174V8.27768ZM11.4174 6.62737H10.1589V5.86567H11.4174V6.62737Z" fill="#EBF1FF"/>
    <path d="M3.28187 0H2.52881V1.99791H3.28187V0Z" fill="#EBF1FF"/>
    <path d="M10.4713 0H9.71826V1.99791H10.4713V0Z" fill="#EBF1FF"/>
</svg>