<svg width="6" height="6" viewBox="0 0 6 6" fill="none" xmlns="http://www.w3.org/2000/svg">
    <path d="M3.01172 0C1.36395 0 0 1.34051 0 2.98828C0 4.63605 1.36395 6 3.01172 6C4.65949 6 6 4.63605 6 2.98828C6 1.34051 4.65949 0 3.01172 0ZM4.49086 3.9702C4.62797 4.1073 4.62797 4.33031 4.49086 4.46754C4.3548 4.60348 4.1318 4.6057 3.99352 4.46754L3.01172 3.48539L2.00637 4.46766C1.86926 4.60477 1.64625 4.60477 1.50902 4.46766C1.37191 4.33055 1.37191 4.10754 1.50902 3.97031L2.49105 2.98828L1.50902 2.00625C1.37191 1.86902 1.37191 1.64602 1.50902 1.50891C1.64625 1.3718 1.86926 1.3718 2.00637 1.50891L3.01172 2.49117L3.99352 1.50891C4.13039 1.37203 4.3534 1.37156 4.49086 1.50891C4.62797 1.64602 4.62797 1.86902 4.49086 2.00625L3.50883 2.98828L4.49086 3.9702Z" fill="#EBF1FF"/>
</svg>