<svg width="13" height="13" viewBox="0 0 13 13" fill="none" xmlns="http://www.w3.org/2000/svg">
    <path d="M6.62693 1.04102H1.92969V0.380859C1.92969 0.170523 1.75916 0 1.54883 0C1.33849 0 1.16797 0.170523 1.16797 0.380859V12.6191C1.16797 12.8295 1.33849 13 1.54883 13C1.75916 13 1.92969 12.8295 1.92969 12.6191V6.88086H6.62693C6.83726 6.88086 7.00779 6.71034 7.00779 6.5V1.42188C7.00779 1.21154 6.83726 1.04102 6.62693 1.04102Z" fill="#EBF1FF"/>
    <path d="M11.8048 7.62811L10.8458 5.23047L11.8048 2.83283C11.8518 2.71553 11.8373 2.58248 11.7665 2.47787C11.6957 2.37326 11.5776 2.31055 11.4511 2.31055H7.76953V6.5C7.76953 7.12994 7.25689 7.64258 6.62695 7.64258C6.05584 7.64258 5.54785 7.64258 4.97656 7.64258V7.76953C4.97656 7.98025 5.14716 8.15039 5.35742 8.15039H11.4511C11.5776 8.15039 11.6957 8.08768 11.7665 7.98307C11.8373 7.87846 11.8518 7.74541 11.8048 7.62811Z" fill="#EBF1FF"/>
</svg>
