<svg width="13" height="13" viewBox="0 0 13 13" fill="none" xmlns="http://www.w3.org/2000/svg">
    <g clip-path="url(#clip0)">
        <path d="M5.49257 0.449982C5.18308 0.449982 4.91671 0.680427 4.87184 0.986435L4.05879 7.36001C4.04639 7.45708 3.99704 7.54562 3.92099 7.60722L3.11816 8.25724L4.52684 9.68828L5.948 8.26712C6.05886 8.15624 6.11992 8.00885 6.11992 7.85206V1.07731C6.11992 0.731411 5.83849 0.449982 5.49257 0.449982Z"
              fill="#EBF1FF"/>
        <path d="M4.45188 10.6951L2.00044 8.20479L0.147941 9.63321C-0.0291331 9.76976 -0.0505881 10.0289 0.101654 10.1927L2.17983 12.4288C2.32691 12.587 2.57622 12.5909 2.72819 12.4373L4.45188 10.6951Z"
              fill="#EBF1FF"/>
        <path d="M9.88166 8.25724L9.07884 7.60721C9.00279 7.54562 8.95343 7.45708 8.94104 7.36001L8.12796 0.986404C8.08312 0.680422 7.81672 0.449951 7.50723 0.449951C7.16131 0.449951 6.87988 0.731381 6.87988 1.0773V7.85203C6.87988 8.00882 6.94095 8.15621 7.0518 8.26709L8.47297 9.68826L9.88166 8.25724Z"
              fill="#EBF1FF"/>
        <path d="M10.9993 8.20479L8.54785 10.6951L10.2716 12.4373C10.4235 12.5909 10.6728 12.587 10.8199 12.4288L12.8981 10.1927C13.0503 10.0289 13.0289 9.76977 12.8518 9.63321L10.9993 8.20479Z"
              fill="#EBF1FF"/>
    </g>
    <defs>
        <clipPath id="clip0">
            <rect width="13" height="13" fill="white"/>
        </clipPath>
    </defs>
</svg>
