<svg width="13" height="13" viewBox="0 0 13 13" fill="none" xmlns="http://www.w3.org/2000/svg">
    <g clip-path="url(#clip0)">
        <path d="M6.5 1.87254C6.27575 1.87254 6.09375 1.69054 6.09375 1.46629V0.40625C6.09375 0.182 6.27575 0 6.5 0C6.72425 0 6.90625 0.182 6.90625 0.40625V1.46629C6.90625 1.69054 6.72425 1.87254 6.5 1.87254Z" fill="#EBF1FF"/>
        <path d="M10.0594 3.34697C9.95543 3.34697 9.85144 3.30742 9.77235 3.2278C9.61364 3.06909 9.61364 2.8118 9.77235 2.65309L10.522 1.90342C10.6807 1.74472 10.938 1.74472 11.0967 1.90342C11.2554 2.06213 11.2554 2.31942 11.0967 2.47813L10.3471 3.2278C10.2674 3.30688 10.1634 3.34697 10.0594 3.34697Z" fill="#EBF1FF"/>
        <path d="M12.5937 6.90625H11.5337C11.3094 6.90625 11.1274 6.72425 11.1274 6.5C11.1274 6.27575 11.3094 6.09375 11.5337 6.09375H12.5937C12.818 6.09375 13 6.27575 13 6.5C13 6.72425 12.818 6.90625 12.5937 6.90625Z" fill="#EBF1FF"/>
        <path d="M10.8091 11.2152C10.7051 11.2152 10.6011 11.1757 10.522 11.096L9.77235 10.3464C9.61364 10.1877 9.61364 9.93037 9.77235 9.77166C9.93106 9.61296 10.1884 9.61296 10.3471 9.77166L11.0967 10.5213C11.2554 10.68 11.2554 10.9373 11.0967 11.096C11.0171 11.1757 10.9131 11.2152 10.8091 11.2152Z" fill="#EBF1FF"/>
        <path d="M2.19078 11.2152C2.08678 11.2152 1.98278 11.1757 1.9037 11.096C1.74499 10.9373 1.74499 10.68 1.9037 10.5213L2.65336 9.77166C2.81207 9.61296 3.06936 9.61296 3.22807 9.77166C3.38678 9.93037 3.38678 10.1877 3.22807 10.3464L2.47841 11.096C2.39878 11.1757 2.29478 11.2152 2.19078 11.2152Z" fill="#EBF1FF"/>
        <path d="M1.46629 6.90625H0.40625C0.182 6.90625 0 6.72425 0 6.5C0 6.27575 0.182 6.09375 0.40625 6.09375H1.46629C1.69054 6.09375 1.87254 6.27575 1.87254 6.5C1.87254 6.72425 1.69054 6.90625 1.46629 6.90625Z" fill="#EBF1FF"/>
        <path d="M2.94045 3.34697C2.83645 3.34697 2.73245 3.30742 2.65336 3.2278L1.9037 2.47813C1.74499 2.31942 1.74499 2.06213 1.9037 1.90342C2.06241 1.74472 2.3197 1.74472 2.47841 1.90342L3.22807 2.65309C3.38678 2.8118 3.38678 3.06909 3.22807 3.2278C3.14791 3.30688 3.04445 3.34697 2.94045 3.34697Z" fill="#EBF1FF"/>
        <path d="M8.125 11.375V12.0521C8.125 12.5721 7.69708 13 7.17708 13H5.82292C5.36792 13 4.875 12.6533 4.875 11.895V11.375H8.125Z" fill="#EBF1FF"/>
        <path d="M8.88863 3.55333C8.0003 2.83292 6.8303 2.55125 5.68738 2.795C4.25197 3.09292 3.08738 4.26292 2.78947 5.69833C2.48613 7.17167 3.03863 8.63417 4.21947 9.52792C4.53905 9.76625 4.76113 10.1346 4.83697 10.5625V10.5679C4.8478 10.5625 4.86405 10.5625 4.87488 10.5625H8.12488C8.13572 10.5625 8.14113 10.5625 8.15197 10.5679V10.5625C8.2278 10.1508 8.47155 9.77167 8.8453 9.47917C9.76072 8.75333 10.2915 7.67 10.2915 6.5C10.2915 5.35167 9.78238 4.27917 8.88863 3.55333ZM8.53113 6.77083C8.30905 6.77083 8.12488 6.58667 8.12488 6.36458C8.12488 5.54125 7.45863 4.875 6.6353 4.875C6.41322 4.875 6.22905 4.69083 6.22905 4.46875C6.22905 4.24667 6.41322 4.0625 6.6353 4.0625C7.9028 4.0625 8.93738 5.09708 8.93738 6.36458C8.93738 6.58667 8.75322 6.77083 8.53113 6.77083Z" fill="#EBF1FF"/>
        <path d="M4.83691 10.5625H4.87483C4.864 10.5625 4.84775 10.5625 4.83691 10.5679V10.5625Z" fill="#EBF1FF"/>
        <path d="M8.15208 10.5625V10.5679C8.14125 10.5625 8.13583 10.5625 8.125 10.5625H8.15208Z" fill="#EBF1FF"/>
    </g>
    <defs>
        <clipPath id="clip0">
            <rect width="13" height="13" fill="white"/>
        </clipPath>
    </defs>
</svg>