<svg width="13" height="13" viewBox="0 0 13 13" fill="none" xmlns="http://www.w3.org/2000/svg">
    <path d="M6.11914 9.54688C6.11914 11.436 7.65784 13 9.54688 13C11.4359 13 13 11.436 13 9.54688C13 7.7873 11.634 6.34766 9.92773 6.15723V3.83398H11.0703C11.2836 3.83398 11.4512 3.66643 11.4512 3.45312C11.4512 3.23987 11.2836 3.07227 11.0703 3.07227H9.92773V1.92969C9.92773 1.71643 9.76018 1.54883 9.54688 1.54883C9.33357 1.54883 9.16602 1.71643 9.16602 1.92969V3.07227H8.02344C7.81013 3.07227 7.64258 3.23987 7.64258 3.45312C7.64258 3.66643 7.81013 3.83398 8.02344 3.83398H9.16602V6.15723C7.45977 6.34766 6.11914 7.7873 6.11914 9.54688ZM9.54688 6.88086C11.017 6.88086 12.2383 8.07676 12.2383 9.54688C12.2383 11.017 11.017 12.2383 9.54688 12.2383C8.07676 12.2383 6.88086 11.017 6.88086 9.54688C6.88086 8.07676 8.07676 6.88086 9.54688 6.88086Z"
          fill="#EBF1FF"/>
    <path d="M3.07227 6.84277V10.1487L2.19626 9.2803C2.05154 9.12795 1.80784 9.12795 1.66309 9.2803C1.51074 9.42502 1.51074 9.66877 1.66309 9.8135L3.18652 11.3369C3.33125 11.4893 3.57495 11.4893 3.7197 11.3369L5.24314 9.8135C5.39548 9.66877 5.39548 9.42502 5.24314 9.2803C5.09841 9.12795 4.85471 9.12795 4.70996 9.2803L3.83396 10.1487V6.84277C5.54023 6.65234 6.88086 5.21269 6.88086 3.45312C6.88086 1.56408 5.34216 -4.76837e-06 3.45312 -4.76837e-06C1.56409 -4.76837e-06 0 1.56408 0 3.45312C0 5.21269 1.36602 6.65234 3.07227 6.84277ZM3.45312 0.761715C4.92324 0.761715 6.11914 1.983 6.11914 3.45312C6.11914 4.92324 4.92324 6.11914 3.45312 6.11914C1.98301 6.11914 0.761719 4.92324 0.761719 3.45312C0.761719 1.983 1.98301 0.761715 3.45312 0.761715Z"
          fill="#EBF1FF"/>
</svg>