<svg width="13" height="13" viewBox="0 0 13 13" fill="none" xmlns="http://www.w3.org/2000/svg">
    <path d="M5.28127 3.1483C4.94527 3.1483 4.67188 2.87491 4.67188 2.5389C4.67188 2.20289 4.94527 1.9295 5.28127 1.9295C5.61728 1.9295 5.89067 2.20289 5.89067 2.5389C5.89067 2.87491 5.61728 3.1483 5.28127 3.1483Z"
          fill="#EBF1FF"/>
    <path d="M12.987 11.1512L11.9968 4.54938C11.9104 3.97299 11.4247 3.55454 10.8417 3.55454H7.07004C7.40191 2.92661 7.39556 2.18797 7.04871 1.55851C6.6978 0.921948 6.06123 0.529649 5.34596 0.508574C5.3033 0.507304 5.25937 0.507304 5.2162 0.508574C4.50118 0.529649 3.86461 0.921948 3.5137 1.55851C3.16686 2.18771 3.16051 2.9261 3.49263 3.55454H2.1583C1.57532 3.55454 1.08958 3.97299 1.00324 4.54938L0.0129752 11.1512C-0.0375539 11.4876 0.0609652 11.8286 0.282887 12.0866C0.505063 12.3443 0.827789 12.4924 1.16804 12.4924H11.832C12.1722 12.4924 12.4949 12.3443 12.7171 12.0866C12.939 11.8286 13.0376 11.4876 12.987 11.1512ZM4.24219 3.2308C4.00808 2.83469 4.00173 2.35606 4.22517 1.95081C4.43922 1.56308 4.80892 1.33329 5.24007 1.32059C5.25353 1.32034 5.2675 1.32009 5.28121 1.32009C5.29492 1.32009 5.30888 1.32034 5.32234 1.32059C5.75349 1.33329 6.12319 1.56308 6.33724 1.95081C6.56043 2.35581 6.55434 2.83418 6.32074 3.23029L6.12801 3.55454L5.28121 4.98027L4.4344 3.55454L4.24219 3.2308ZM5.31802 10.8173C4.78455 11.11 4.87926 11.6676 4.88028 11.6732C4.92039 11.8941 4.77414 12.1056 4.55323 12.1458C4.52886 12.1503 4.50423 12.1524 4.4801 12.1524C4.28764 12.1524 4.1165 12.015 4.08095 11.8187C4.07536 11.7888 4.02966 11.515 4.10685 11.1768C4.21324 10.7119 4.49686 10.3412 4.92725 10.105C5.12378 9.99713 5.37084 10.069 5.47875 10.2658C5.58667 10.4623 5.51481 10.7094 5.31802 10.8173ZM8.03314 8.48075C7.66903 9.51291 6.54139 9.89912 6.49365 9.91511C6.45099 9.92933 6.40783 9.93619 6.36517 9.93619C6.19505 9.93619 6.0366 9.82853 5.97973 9.65815C5.90889 9.44588 6.0234 9.21634 6.23542 9.14474C6.25192 9.13915 7.03779 8.8601 7.26708 8.21033C7.34173 7.99882 7.57381 7.88786 7.78532 7.96251C7.99683 8.03716 8.10804 8.26924 8.03314 8.48075ZM8.25328 6.98697C8.21088 7.00118 8.16746 7.00804 8.1248 7.00804C7.95468 7.00804 7.79624 6.90038 7.73936 6.73C7.60428 6.32475 7.18811 6.17596 7.18379 6.17444C6.97101 6.10359 6.85599 5.87355 6.92683 5.66077C6.99793 5.44773 7.22797 5.33271 7.44076 5.4038C7.47351 5.41472 8.24592 5.68032 8.51025 6.47329C8.58134 6.68608 8.46632 6.91612 8.25328 6.98697Z"
          fill="#EBF1FF"/>
</svg>