<svg width="25" height="15" viewBox="0 0 25 15" fill="none" xmlns="http://www.w3.org/2000/svg">
    <path d="M12.4968 6.81708C14.3453 6.81708 15.8313 5.32258 15.8313 3.48584C15.8334 1.64373 14.3453 0.153503 12.4968 0.153503C10.6611 0.153503 9.17093 1.64373 9.17093 3.48584C9.17093 5.32477 10.6612 6.81708 12.4968 6.81708Z" fill="#EBF1FF"/>
    <path d="M15.1713 7.35995H9.83063C8.87577 7.35995 8.09366 8.23543 8.09366 9.30935V14.6737C8.09366 14.7327 8.1237 14.7853 8.12693 14.8464H16.8719C16.8783 14.7853 16.903 14.7327 16.903 14.6737V9.30935C16.9062 8.23543 16.1241 7.35995 15.1713 7.35995Z" fill="#EBF1FF"/>
    <path d="M21.4659 8.40707C22.9496 8.40707 24.1395 7.21298 24.1395 5.73778C24.1395 4.26257 22.9496 3.06635 21.4659 3.06635C19.9928 3.06635 18.8009 4.26257 18.8009 5.73778C18.7977 7.21194 19.9929 8.40707 21.4659 8.40707Z" fill="#EBF1FF"/>
    <path d="M23.6107 8.84267H19.331C18.5628 8.84267 17.9352 9.54431 17.9352 10.408V14.7059C17.9352 14.7521 17.9577 14.796 17.9609 14.8465H24.9753C24.9786 14.796 25 14.7521 25 14.7059V10.408C25.0032 9.54431 24.3767 8.84267 23.6107 8.84267Z" fill="#EBF1FF"/>
    <path d="M3.53193 8.40707C5.01355 8.40707 6.20445 7.21298 6.20445 5.73778C6.20445 4.26257 5.01355 3.06635 3.53193 3.06635C2.05782 3.06635 0.865875 4.26257 0.865875 5.73778C0.865875 7.21298 2.05782 8.40707 3.53193 8.40707Z" fill="#EBF1FF"/>
    <path d="M5.67545 8.84267H1.39149C0.625494 8.84267 0 9.54431 0 10.408V14.7059C0 14.7521 0.0225309 14.796 0.0268083 14.8465H7.04123C7.04446 14.796 7.06486 14.7521 7.06486 14.7059V10.408C7.06699 9.54431 6.44041 8.84267 5.67545 8.84267Z" fill="#EBF1FF"/>
</svg>