<svg width="25" height="19" viewBox="0 0 25 19" fill="none" xmlns="http://www.w3.org/2000/svg">
    <path d="M0 0V4.15625H25V0H0ZM4.44336 2.63477H2.97852V1.52148H4.44336V2.63477ZM7.37305 2.63477H5.9082V1.52148H7.37305V2.63477ZM10.3027 2.63477H8.83789V1.52148H10.3027V2.63477ZM22.0215 2.63477H14.6973V1.52148H22.0215V2.63477Z" fill="#EBF1FF"/>
    <path d="M0 7.49609V11.5781H25V7.49609H0ZM4.44336 10.0938H2.97852V8.98047H4.44336V10.0938ZM7.37305 10.0938H5.9082V8.98047H7.37305V10.0938ZM10.3027 10.0938H8.83789V8.98047H10.3027V10.0938ZM22.0215 10.0938H14.6973V8.98047H22.0215V10.0938Z" fill="#EBF1FF"/>
    <path d="M0 14.918V19H25V14.918H0ZM4.44336 17.5156H2.97852V16.4023H4.44336V17.5156ZM7.37305 17.5156H5.9082V16.4023H7.37305V17.5156ZM10.3027 17.5156H8.83789V16.4023H10.3027V17.5156ZM22.0215 17.5156H14.6973V16.4023H22.0215V17.5156Z" fill="#EBF1FF"/>
    <path d="M1.51367 5.26953H23.4863V6.38281H1.51367V5.26953Z" fill="#EBF1FF"/>
    <path d="M1.51367 12.6914H23.4863V13.8047H1.51367V12.6914Z" fill="#EBF1FF"/>
</svg>