<svg width="14" height="14" viewBox="0 0 14 14" fill="none" xmlns="http://www.w3.org/2000/svg">
    <path d="M9.3717 4.96505L6.25378 7.86322C6.14422 7.96505 6.07343 8.10178 6.05341 8.24999L5.94732 9.03697C5.93318 9.14197 5.78543 9.15252 5.75647 9.05064L5.34801 7.61555C5.3014 7.45176 5.36936 7.27689 5.51434 7.18759L9.29226 4.86063C9.36004 4.81892 9.43002 4.91082 9.3717 4.96505ZM14 0V14H0V0H14ZM10.8845 3.36351L2.95125 6.42391C2.75567 6.49938 2.75717 6.77664 2.95355 6.84997L4.88653 7.57153L5.6348 9.97775C5.68274 10.1319 5.87128 10.1887 5.99636 10.0867L7.07387 9.20826C7.18684 9.11618 7.34757 9.11168 7.46549 9.19729L9.40908 10.6084C9.54287 10.7055 9.73239 10.6323 9.76602 10.4704L11.1896 3.62238C11.2263 3.44578 11.0528 3.29855 10.8845 3.36351Z"
          fill="#EBF1FF"/>
</svg>