<svg width="14" height="14" viewBox="0 0 14 14" fill="none" xmlns="http://www.w3.org/2000/svg">
    <path d="M13.1079 0H0.894079C0.400113 0 0 0.400113 0 0.893092V13.1069C0 13.5999 0.400113 14 0.894079 14H13.1069C13.5999 14 14 13.5999 14 13.1069V0.893092C14.001 0.399125 13.6009 0 13.1079 0ZM11.6132 8.5308C11.869 8.79162 12.4242 9.22927 12.3235 9.67483C12.2306 10.0838 11.6201 9.93466 11.0273 9.95837C10.3506 9.98702 9.94947 10.0018 9.54245 9.67483C9.35079 9.51972 9.23816 9.33597 9.05441 9.13048C8.88745 8.94475 8.67702 8.61181 8.39051 8.62466C7.8758 8.65034 8.03683 9.36758 7.85407 9.85661C4.99301 10.3071 3.84405 8.53969 2.83043 6.82464C2.33943 5.99379 1.63009 4.20958 1.63009 4.20958L3.65338 4.20267C3.65338 4.20267 4.30245 5.38325 4.47435 5.68753C4.62056 5.94637 4.7816 6.15186 4.94757 6.38304C5.08687 6.5747 5.30718 6.95011 5.54823 6.91948C5.94044 6.8691 6.01157 5.34768 5.76854 4.83791C5.67172 4.63143 5.43956 4.55931 5.19949 4.48917C5.2805 3.97742 7.46877 3.87072 7.82245 4.26787C8.33618 4.84482 7.4668 6.4512 8.17021 6.91948C9.15814 6.40181 10.0018 4.23428 10.0018 4.23428L12.3709 4.2491C12.3709 4.2491 12.0004 5.42079 11.6122 5.94044C11.3859 6.24473 10.6351 6.92245 10.6647 7.42531C10.6884 7.82344 11.299 8.21071 11.6132 8.5308Z" fill="#EBF1FF"/>
</svg>